<?xml version="1.0" encoding="UTF-8"?>
<!DOCTYPE svg PUBLIC "-//W3C//DTD SVG 1.1//EN" "http://www.w3.org/Graphics/SVG/1.1/DTD/svg11.dtd">
<!-- Creator: CorelDRAW 2020 (64-Bit) -->
<svg xmlns="http://www.w3.org/2000/svg" xml:space="preserve" width="1772px" height="307px" version="1.1" style="shape-rendering:geometricPrecision; text-rendering:geometricPrecision; image-rendering:optimizeQuality; fill-rule:evenodd; clip-rule:evenodd"
viewBox="0 0 1772 307.15"
 xmlns:xlink="http://www.w3.org/1999/xlink"
 xmlns:xodm="http://www.corel.com/coreldraw/odm/2003">
 <defs>
  <style type="text/css">
   <![CDATA[
    .fil2 {fill:none}
    .fil0 {fill:#ffffff;fill-rule:nonzero}
    .fil1 {fill:#D52032;fill-rule:nonzero}
   ]]>
  </style>
 </defs>
 <g id="Layer_x0020_1">
  <metadata id="CorelCorpID_0Corel-Layer"/>
  <g id="_2935510435168">
   <g>
    <path class="fil0" d="M51.29 261.47l0 -178.79 94.27 0 0 19.51 -73.02 0 0 51.26 73.02 0 0 19.75 -73.02 0 0 88.27 -21.25 0zm126.73 0l0 -178.79 42.01 0c11.96,0 20.75,0.67 26.3,2 5.58,1.38 10.5,3.67 14.75,6.92 5.29,4.13 9.38,9.71 12.29,16.67 2.96,6.96 4.42,14.67 4.42,23.13 0,14.63 -4.08,25.8 -12.25,33.38 -8.21,7.63 -20.17,11.42 -35.97,11.42l-3.79 0 68.26 85.27 -27 0 -65.26 -85.27 -3.01 0 0 85.27 -20.75 0zm20.75 -160.78l0 59.76 16.22 0c16.62,0 27.75,-2.13 33.38,-6.42 5.62,-4.25 8.42,-11.71 8.42,-22.38 0,-11.46 -2.88,-19.46 -8.67,-24.09 -5.8,-4.58 -16.84,-6.87 -33.13,-6.87l-16.22 0zm113.32 160.78l0 -178.79 21.25 0 0 178.79 -21.25 0zm129.56 -99.23c11.63,4.96 20.42,11.54 26.3,19.75 5.92,8.21 8.88,17.97 8.88,29.18 0,16.42 -5.25,29.67 -15.71,39.71 -10.46,10.05 -24.3,15.09 -41.59,15.09 -14.09,0 -25.88,-3.59 -35.43,-10.79 -9.5,-7.21 -15.92,-17.42 -19.29,-30.68l19.29 -9.54c2.63,10.83 6.92,19.04 12.92,24.63 5.96,5.58 13.46,8.38 22.51,8.38 10.66,0 19.29,-3.09 25.92,-9.21 6.58,-6.17 9.87,-14.17 9.87,-24.01 0,-8 -2.29,-14.92 -6.91,-20.84 -4.59,-5.91 -11.51,-10.87 -20.8,-14.96l-21.75 -9.29c-11.88,-4.96 -20.76,-11.34 -26.55,-19.17 -5.84,-7.8 -8.75,-17.17 -8.75,-28.09 0,-12.71 4.71,-23.21 14.17,-31.51 9.46,-8.29 21.5,-12.46 36.17,-12.46 10.71,0 20.05,2.29 27.88,6.84 7.88,4.58 14,11.29 18.38,20.21l-17.59 11.21c-3.96,-6.92 -8.46,-12.04 -13.42,-15.42 -4.96,-3.38 -10.58,-5.08 -16.83,-5.08 -8,0 -14.55,2.45 -19.63,7.33 -5.09,4.88 -7.63,11.09 -7.63,18.67 0,6.34 1.96,11.84 5.88,16.46 3.87,4.67 9.96,8.75 18.17,12.34l25.54 11.25zm63.48 99.23l0 -178.79 94.26 0 0 19.51 -73.01 0 0 51.26 73.01 0 0 19.75 -73.01 0 0 68.51 73.01 0 0 19.76 -94.26 0zm129.52 -178.79l21.51 0 0 111.27c0,18.09 3.83,31.34 11.54,39.8 7.71,8.46 19.75,12.72 36.22,12.72 16.46,0 28.5,-4.26 36.21,-12.72 7.71,-8.46 11.55,-21.71 11.55,-39.8l0 -111.27 21.5 0 0 111.27c0,24.18 -5.75,42.26 -17.25,54.27 -11.55,12 -28.89,18 -52.06,18 -23.13,0 -40.42,-6 -51.97,-18 -11.5,-12.01 -17.25,-30.09 -17.25,-54.27l0 -111.27zm180.83 178.79l0 -178.79 42.01 0c11.96,0 20.75,0.67 26.3,2 5.58,1.38 10.5,3.67 14.75,6.92 5.29,4.13 9.37,9.71 12.29,16.67 2.96,6.96 4.42,14.67 4.42,23.13 0,14.63 -4.09,25.8 -12.25,33.38 -8.21,7.63 -20.17,11.42 -35.97,11.42l-3.79 0 68.26 85.27 -27 0 -65.27 -85.27 -3 0 0 85.27 -20.75 0zm20.75 -160.78l0 59.76 16.22 0c16.62,0 27.75,-2.13 33.38,-6.42 5.62,-4.25 8.41,-11.71 8.41,-22.38 0,-11.46 -2.87,-19.46 -8.66,-24.09 -5.8,-4.58 -16.84,-6.87 -33.13,-6.87l-16.22 0z"/>
    <path class="fil1" d="M1170.59 163.2l0 86.06c-11.88,5.96 -23.46,10.42 -34.71,13.42 -11.3,3.04 -22.22,4.54 -32.8,4.54 -26.97,0 -49.3,-8.88 -67.1,-26.67 -17.79,-17.8 -26.67,-40.26 -26.67,-67.35 0,-27.38 9,-50.01 27.05,-67.89 18.04,-17.92 40.84,-26.88 68.47,-26.88 10.42,0 20.34,1.42 29.8,4.29 9.41,2.84 18.5,7.17 27.21,12.92l-4.54 44.3c-8.21,-8.29 -16.38,-14.37 -24.51,-18.21 -8.17,-3.87 -16.71,-5.79 -25.67,-5.79 -15.88,0 -29.01,5.29 -39.42,15.92 -10.42,10.63 -15.63,23.92 -15.63,39.84 0,16.8 5.04,30.47 15.08,41.09 10.05,10.63 23.01,15.92 38.84,15.92 3.67,0 7.38,-0.33 11.13,-0.96 3.75,-0.66 7.63,-1.58 11.71,-2.83l0 -25.71 -33.5 0 0 -36.01 75.26 0zm83.02 -46.51l-6.96 0 0 49.01 8.92 0c10.67,0 18.79,-2.17 24.42,-6.46 5.62,-4.29 8.42,-10.5 8.42,-18.55 0,-8.46 -2.71,-14.54 -8.17,-18.33 -5.46,-3.8 -14.34,-5.67 -26.63,-5.67zm-47.97 144.78l0 -177.04 45.51 0c14.59,0 25.88,0.96 33.92,2.88 8.05,1.92 15.13,5.08 21.34,9.58 6.59,4.71 11.71,10.55 15.34,17.51 3.62,6.96 5.41,14.29 5.41,22 0,11.17 -2.83,20.92 -8.5,29.3 -5.66,8.38 -13.83,14.92 -24.5,19.67l54.01 76.1 -48.26 0 -47.26 -69.52 -6 0 0 69.52 -41.01 0zm159.32 0l0 -177.04 109.03 0 0 36.51 -68.02 0 0 32.01 58.26 0 0 36.25 -58.26 0 0 35.01 69.02 0 0 37.26 -110.03 0zm142.24 0l0 -177.04 42.26 0 0 139.03 69.01 0 0 38.01 -111.27 0zm131.98 0l0 -177.04 42.26 0 0 139.03 69.02 0 0 38.01 -111.28 0z"/>
   </g>
   <polygon class="fil2" points="2.32,1.92 1769.33,1.92 1769.33,306.14 2.32,306.14 "/>
  </g>
 </g>
</svg>
