<?xml version="1.0" encoding="UTF-8"?>
<svg id="Layer_2" data-name="Layer 2" xmlns="http://www.w3.org/2000/svg" viewBox="0 0 468 153.01">
  <defs>
    <style>
      .cls-1 {
        isolation: isolate;
      }

      .cls-2 {
        fill: #a48f7a;
        stroke-width: 0px;
      }
    </style>
  </defs>
  <g id="Layer_2-2" data-name="Layer 2">
    <g>
      <g class="cls-1">
        <g class="cls-1">
          <path class="cls-2" d="m0,124.76c0-.22.08-.29.31-.29.89,0,3.3,1.44,3.53,2.08,1.86,5.39,6.13,8.44,11.95,8.44,8.92,0,21.37-7.11,34.17-23.96,8.03-10.56,14.47-21.34,21.72-32.36,14.39-21.87,29.48-43.14,49.26-60.81-9.31,2.87-19.08,4.85-28.35,7.51-15.75,4.53-27.19,10.85-27.19,21.62,0,1.87.35,3.84,1.05,5.96,0,0-.35.25-.7.25-.19,0-.35-.07-.47-.29-1.12-2.23-1.63-4.42-1.63-6.47,0-9.91,11.52-17.6,20.98-21.26,16.1-6.25,32.93-9.2,48.29-17.17.62-.32,1.2-.47,1.75-.47,1.98,0,3.1,1.94,3.1,2.95,0,.22-.04.4-.16.5-27.66,21.48-44.26,49.75-62.76,77.59,2.25.47,4.31,1.29,6.24,2.41l1.51.04c17.11,0,41.74-8.12,65.78-23.02,37.04-22.92,57.52-49.89,57.52-49.89.54-.57.97-.83,1.32-.83.93,0,1.28,1.62,1.28,2.98,0,.79-.12,1.47-.31,1.72-14.7,19.43-36.73,39.22-61.44,52.91-21.14,11.71-46.16,17.67-62.8,18.03,12.37,9.41,18.97,29.38,26.03,30.49,1.16.18,2.4.29,3.72.29,14,0,37.51-9.81,52.25-21.66.16-.11.31-.14.43-.14.39,0,.66.36.66.65,0,.11-.04.22-.12.29-14.12,11.21-37.59,22.92-54.65,22.92l-1.75-.04c-4.85-.25-10.78-2.8-14.86-7.29-9.58-10.67-14.43-22.81-21.57-26.11-.54-.07-1.05-.18-1.55-.32-1.82,2.77-3.65,5.5-5.55,8.19-9.15,13.15-20.44,28.88-34.33,34.84-3.61,1.54-7.91,2.33-12.18,2.33-9.93,0-19.78-4.17-20.52-12.61Z"/>
          <path class="cls-2" d="m187.84,114.23c0-4.67,4-11.57,8.03-17.64-8.18,8.26-19.47,18.64-27.97,18.64-1.2,0-2.33-.21-3.41-.68-2.79-1.19-3.96-3.05-3.96-5.39,0-2.87,1.71-6.39,4.31-10.2,2.99-4.42,8.18-9.73,15.79-12.97,2.91-1.22,5.82-1.8,8.46-1.8,5.2,0,9.27,2.26,9.89,6,1.55-1.65,2.87-3.02,3.8-3.92.19-.18.43-.25.7-.25,1.36,0,3.53,2.26,3.53,4.42,0,.57-.16,1.11-.47,1.62-3.45,5.21-13.27,16.02-13.27,22.31,0,1.83,1.05,3.52,3.96,3.52,7.25,0,24.59-9.3,31.07-15.88.27-.25.54-.36.78-.36.19,0,.35.07.35.25,0,.07-.04.18-.15.29-5.35,5.46-23.93,17.46-34.64,17.46-4.5,0-6.79-1.97-6.79-5.42Zm-4.73-8.4c4.23-3.23,9.62-8.91,13.89-13.51,0-3.59-2.13-4.96-4.96-4.96s-6.25,1.29-9.12,3.12c-4,2.59-11.25,9.16-14.7,16.31-.89,1.87-1.32,3.27-1.32,4.24,0,1.37.78,1.94,2.06,1.94,3.26,0,9.7-3.77,14.16-7.15Z"/>
          <path class="cls-2" d="m272.01,117.97c-2.44-1.22-3.3-3.16-3.3-5.24,0-3.56,2.09-7.18,3.57-9.52,2.83-4.42,7.49-8.01,10.32-10.85.08-.11.12-.18.12-.29,0-.21-.15-.39-.43-.39-.12,0-.19,0-.31.07-10.05,4.24-24.01,18.25-28.35,18.46h-.35c-2.64,0-3.38-1.44-3.38-3.45v-.43c.47-10.34,12.22-20.62,13.34-22.23l.04-.11c0-.11-.16-.22-.35-.22s-.54.14-1.01.32c-13.42,5.6-32.04,23.31-37.43,33.87-.16.39-.54.57-1.05.57-1.59,0-4.19-1.76-4.19-3.45l.08-.43c.7-2.37,2.21-5.82,5.47-10.52,4.07-5.93,10.98-15.73,12.99-21.59.23-.57.81-.97,1.36-.97.27,0,.5.07.66.22,1.51,1.01,3.57,2.91,3.57,6l-.08.97c-.04.75-8.42,11.03-10.08,14.51,6.79-7.51,27.89-24.32,35.03-24.32h.04c2.17,0,2.99,1.19,2.99,2.62,0,1.19-.58,2.55-1.51,3.52-2.99,3.09-15.4,18.82-15.4,21.95,0,.22.04.4.16.47.08.07.16.07.27.07,3.37,0,24.75-20.76,32.81-20.76h.23c1.05.07,2.17,1.22,2.17,3.12,0,.9-.27,1.98-.89,3.2-3.45,6.21-14.12,13.04-14.74,20.01l-.04.58c0,1.04.35,2.08,1.78,2.51.81.25,1.75.36,2.71.36,7.37,0,19.08-6.5,26.8-13.43.35-.32.78-.43,1.09-.43.35,0,.58.14.58.29,0,.07-.04.14-.12.22-13.92,12.03-25.56,15.48-31.3,15.48-1.67,0-2.95-.29-3.88-.75Z"/>
          <path class="cls-2" d="m299.04,114.09c0-4.74,4.11-11.82,7.95-17.67,3.06-4.71,5.97-9.41,6.9-10.27.19-.18.43-.25.7-.25,1.4,0,3.53,2.19,3.53,4.35,0,.58-.16,1.15-.5,1.65-3.38,5.25-13.23,16.06-13.23,22.34,0,1.83,1.05,3.48,3.96,3.48,7.25,0,24.59-9.34,31.07-15.88.23-.25.54-.36.78-.36.19,0,.35.11.35.25,0,.07-.04.18-.16.29-5.35,5.46-23.93,17.49-34.64,17.49-4.5,0-6.71-1.98-6.71-5.42Zm24.71-30.68c-3.49-.36-5.7-2.55-5.7-3.99,0-.54.31-.97.97-1.19.43-.11.85-.18,1.32-.18,1.28,0,2.64.47,4.19,1.26,1.12.61,2.21,1.9,2.21,2.87,0,.72-.58,1.26-2.13,1.26-.23,0-.54,0-.85-.04Z"/>
          <path class="cls-2" d="m329.72,114.74l.04-.22c5.12-11.46,15.9-21.01,20.01-32.76.12-.4.43-.54.81-.54,1.59,0,4.73,2.84,4.73,5.32,0,.32-.04.65-.15.93-1.36,3.59-3.38,6.97-5.74,10.31,5.2-4.13,10.71-8.01,17.84-11.89,5.04-2.73,11.33-5.24,15.75-5.24.74,0,1.4.07,2.02.22,1.82.43,2.79,2.48,2.79,4.31,0,.5-.08,1.01-.23,1.44-.93,2.73-3.41,5.46-11.6,14.47-3.99,4.35-6.94,8.73-6.94,11.89,0,2.15,1.59,3.02,4.34,3.02,8.3,0,26.1-8.48,30.37-13.36.35-.36,1.05-.68,1.32-.68.08,0,.12,0,.12.07,0,.04-.04.11-.16.22-9.97,9.73-24.44,15.16-33.55,15.16-1.71,0-3.22-.18-4.5-.58-2.6-.79-3.88-2.8-3.88-5.53,0-3.48,2.17-8.12,6.55-12.71,5.9-6.11,10.55-10.6,10.55-13.07l-.08-.47c-.08-.61-.39-1.15-1.28-1.33l-.74-.07c-1.75,0-4.58.75-7.06,2.01-16.83,8.33-24.47,17.49-36.93,31.57-.19.18-.43.29-.74.29-1.4,0-3.69-1.72-3.69-2.77Z"/>
        </g>
      </g>
      <g>
        <path class="cls-2" d="m408.69,111.57c9.31.47,18.12-.13,26.83-1.79,6.27-1.2,12.52-2.54,18.68-4.18,2.42-.64,4.7-2.07,6.82-3.49,2.22-1.49,3.45-3.84,3.68-6.54.52-6.09,1.07-12.19,1.4-18.29.33-6.26.37-12.53.61-18.79.32-8.51-2.51-16.24-5.84-23.85-.82-1.87-1.83-3.67-2.84-5.46-.31-.55-.87-.99-1.38-1.4-.13-.1-.48.07-1.1.18-.19-.25-.58-.76-1.08-1.43-.11.57-.16.87-.25,1.34-.35-.58-.62-1.01-.97-1.59-.21.39-.37.68-.59,1.08-.34-.42-.66-.81-1.08-1.31-.09.34-.15.61-.24.94-.47-.35-.92-.68-1.41-1.04-.2.47-.37.89-.57,1.38-.39-.6-.72-1.11-1.1-1.69-.33.27-.62.5-.83.67-2.32-.64-4.6-1.27-6.87-1.9.01-.18.02-.35.04-.53.46-.09.93-.3,1.37-.26,3.62.29,7.23.62,10.85.94.99.09,1.99.16,2.99.25-.42-2.7-.87-5.25-1.22-7.82-.5-3.73-.96-7.47-1.38-11.21-.16-1.42-.98-1.67-2.1-1.32-2.87.89-5.73,1.81-8.56,2.8-2.37.82-3.35.45-4.46-2.04-1.51,1.89-2.18,4.01-2.46,6.29-.66,5.29.94,9.93,4.65,13.62,3.34,3.33,6.96,6.42,10.66,9.35,4.57,3.61,5.3,8.41,4.77,13.69-.08.8-.66,1.54-1.31,2.2.12-.3.22-.61.35-.9.79-1.71.96-3.48.48-5.31-.41-1.57-.59-3.26-1.32-4.66-.77-1.47-1.91-2.85-3.17-3.94-2.46-2.12-5.19-3.92-7.66-6.03-3.74-3.18-6.84-6.9-7.78-11.88-1.05-5.54-.23-10.66,4.15-14.73,2.01-1.88,4.55-2.07,7.07-2.28,1.43-.12,2.87,0,4.3-.04.39,0,.77-.26,1.31-.45,1.85,2.83,3.06,6.15,3.57,9.66.49,3.35.63,6.75.95,10.12.11,1.19.23,2.37.43,3.55.42,2.4,1.36,3.07,3.76,2.79.23-.03.46-.04.74.15-.69.21-1.39.42-2.22.67.35.27.63.49,1.08.84h-1.97c.55.91.87,1.8,1.48,2.41,4.07,4.05,5.57,9.24,6.7,14.62,1.13,5.37,1.36,10.81,1.16,16.26-.32,8.93-.74,17.87-1.06,26.8-.06,1.76.1,3.53.19,5.3.34,6.79-4.36,12.89-11.13,14.4-5.91,1.32-11.8,2.74-17.75,3.9-9.65,1.88-19.33,2.35-29.37-.02v-.03Z"/>
        <path class="cls-2" d="m422.72,113.34c-4.86,0-9.49-.54-14.06-1.62l-.1-.02v-.23l.13-.02c9.27.47,18.03-.12,26.8-1.79,7.21-1.38,13.15-2.71,18.67-4.18,2.43-.64,4.78-2.13,6.78-3.47,2.1-1.41,3.39-3.7,3.62-6.45l.18-2.09c.46-5.31.93-10.79,1.22-16.19.2-3.7.29-7.47.38-11.11.06-2.52.13-5.12.23-7.68.3-8-2.11-15.3-5.83-23.79-.84-1.92-1.9-3.79-2.83-5.45-.29-.51-.8-.92-1.3-1.32l-.05-.04s-.24.03-.4.07c-.16.04-.36.09-.6.13h-.07s-.09-.11-.09-.11c-.18-.23-.48-.63-.87-1.14-.03.18-.06.34-.09.49-.03.18-.07.36-.11.57l-.06.32-.17-.28c-.17-.28-.32-.52-.46-.76-.13-.21-.25-.41-.39-.64-.16.29-.3.55-.48.87l-.09.16-.13-.13c-.3-.37-.58-.71-.92-1.12-.02.07-.04.14-.05.22-.04.16-.08.32-.13.49l-.05.18-.15-.11c-.43-.32-.84-.62-1.28-.95-.14.34-.28.66-.42,1.01l-.18.44-.34-.52c-.28-.43-.53-.82-.81-1.25-.17.14-.34.27-.48.39l-.29.24-.06-.02c-2.32-.64-4.6-1.27-6.87-1.9l-.1-.03v-.1c.01-.18.03-.35.05-.54v-.09s.1-.02.1-.02c.15-.03.29-.07.44-.11.32-.09.64-.18.96-.15,2.84.23,5.73.48,8.52.73l2.33.21c.51.05,1.02.09,1.54.13.43.03.86.07,1.29.11-.14-.88-.28-1.74-.41-2.59-.28-1.74-.55-3.39-.78-5.08-.5-3.7-.96-7.47-1.38-11.21-.07-.59-.25-.99-.56-1.19-.31-.2-.78-.21-1.38-.03-3.33,1.03-6.05,1.92-8.56,2.8-2.41.83-3.45.41-4.53-1.92-1.27,1.65-2,3.58-2.31,6.07-.66,5.27.89,9.82,4.61,13.52,2.98,2.97,6.46,6.02,10.65,9.34,5.09,4.02,5.25,9.49,4.82,13.8-.09.9-.77,1.69-1.35,2.27l-.44.44.23-.58c.05-.11.09-.23.13-.35.07-.18.14-.38.22-.56.78-1.69.94-3.45.47-5.23-.12-.47-.22-.95-.32-1.42-.24-1.1-.48-2.25-.99-3.22-.73-1.4-1.85-2.78-3.14-3.9-1.25-1.07-2.59-2.09-3.88-3.06-1.26-.95-2.56-1.93-3.77-2.97-4.52-3.85-7.01-7.64-7.82-11.95-1.19-6.27.18-11.12,4.19-14.84,2.02-1.89,4.58-2.1,7.05-2.31h.09c.86-.08,1.75-.06,2.59-.05.56,0,1.15.02,1.71,0,.23,0,.47-.11.75-.23.16-.07.33-.14.52-.21l.09-.03.05.08c1.83,2.8,3.07,6.16,3.59,9.71.32,2.22.5,4.5.67,6.7.09,1.13.18,2.29.28,3.43.1,1.13.22,2.33.43,3.54.4,2.31,1.28,2.96,3.62,2.69.24-.03.51-.05.83.17l.22.15-.25.08c-.52.16-1.05.32-1.63.49l-.36.11c.15.12.3.23.46.36l.71.56h-2.12c.14.24.26.48.39.71.29.56.57,1.09.96,1.48,4.26,4.24,5.71,9.8,6.73,14.68,1.02,4.86,1.39,10.04,1.16,16.29-.16,4.44-.35,8.96-.53,13.34-.18,4.41-.37,8.98-.53,13.46-.05,1.33.04,2.69.12,4,.03.43.05.86.07,1.29.34,6.89-4.38,13-11.23,14.53-1.63.36-3.26.74-4.89,1.11-4.21.96-8.55,1.95-12.86,2.79-5.46,1.06-10.53,1.6-15.36,1.6Zm-12.79-1.59c8.69,1.87,17.66,1.78,28.11-.25,4.31-.84,8.65-1.83,12.86-2.79,1.63-.37,3.26-.74,4.89-1.11,6.73-1.5,11.37-7.5,11.03-14.27-.02-.43-.05-.86-.07-1.28-.08-1.32-.16-2.69-.12-4.03.16-4.49.35-9.05.53-13.46.18-4.37.37-8.89.53-13.33.23-6.23-.14-11.39-1.16-16.23-1.02-4.85-2.46-10.37-6.67-14.56-.42-.42-.71-.97-1.01-1.54-.15-.29-.31-.59-.49-.89l-.11-.19h1.83l-.14-.11c-.23-.18-.43-.33-.65-.51l-.19-.15.82-.25c.47-.14.89-.27,1.31-.4-.13-.03-.25-.02-.37,0-2.48.29-3.47-.44-3.9-2.89-.21-1.22-.33-2.43-.43-3.56-.11-1.14-.2-2.31-.28-3.43-.17-2.2-.34-4.47-.67-6.68-.5-3.48-1.71-6.77-3.5-9.53-.15.06-.28.11-.41.17-.3.13-.57.25-.85.25-.57.02-1.16,0-1.72,0-.84-.01-1.72-.03-2.57.04h-.09c-2.43.21-4.95.42-6.9,2.25-3.94,3.66-5.28,8.44-4.11,14.62.8,4.25,3.26,8,7.74,11.81,1.21,1.04,2.51,2.01,3.76,2.96,1.3.98,2.64,1.99,3.9,3.07,1.32,1.14,2.45,2.55,3.2,3.98.52,1,.77,2.16,1.01,3.28.1.46.2.94.32,1.4.48,1.84.32,3.65-.49,5.39-.04.1-.08.19-.12.29.41-.48.78-1.05.84-1.66.81-8.09-2.1-11.51-4.72-13.58-4.2-3.32-7.69-6.38-10.67-9.36-3.72-3.7-5.34-8.45-4.69-13.72.32-2.61,1.11-4.63,2.49-6.35l.13-.16.08.19c1.06,2.38,1.95,2.79,4.3,1.97,2.51-.88,5.23-1.77,8.56-2.8.69-.21,1.21-.2,1.59.05.37.24.6.7.67,1.37.42,3.74.88,7.51,1.38,11.21.23,1.68.5,3.33.78,5.07.15.9.29,1.81.44,2.75l.03.16h-.16c-.48-.06-.97-.1-1.45-.14-.51-.04-1.03-.08-1.54-.13l-2.33-.21c-2.79-.25-5.68-.5-8.52-.73-.28-.03-.57.06-.88.14-.12.03-.25.07-.37.1-.01.11-.02.22-.02.33,2.22.62,4.44,1.23,6.71,1.86l.2-.16c.17-.14.37-.3.58-.47l.11-.09.08.12c.31.47.59.9.89,1.37l.08.12c.16-.4.31-.76.48-1.16l.06-.15.13.09c.44.32.84.62,1.26.93.03-.1.05-.21.08-.31.04-.15.07-.29.12-.45l.06-.23.15.18c.37.44.67.8.96,1.17.18-.33.32-.59.5-.92l.1-.19.11.19c.18.3.34.56.5.83.1.16.19.32.3.48.02-.08.03-.16.04-.24.04-.23.08-.46.14-.78l.05-.28.17.23c.46.62.83,1.1,1.03,1.37.2-.04.37-.08.5-.12.31-.08.49-.13.62-.03l.05.04c.49.39,1.05.84,1.36,1.39.94,1.66,2,3.54,2.84,5.47,3.73,8.53,6.15,15.85,5.85,23.91-.1,2.56-.16,5.16-.23,7.67-.09,3.65-.19,7.41-.38,11.12-.29,5.4-.76,10.89-1.22,16.2l-.18,2.09c-.24,2.82-1.57,5.18-3.74,6.63-2.02,1.35-4.39,2.85-6.86,3.51-5.53,1.47-11.47,2.8-18.69,4.18-8.4,1.6-16.79,2.21-25.61,1.85Z"/>
      </g>
      <g>
        <path class="cls-2" d="m376.65,22.72c1.2-1.86,2.35-3.76,3.63-5.57,1.11-1.56,2.38-2.99,3.56-4.5,2.9-3.72,6.82-5.65,11.38-6.23,3.69-.47,7.41-.74,11.13-.88,1.48-.06,3,.43,4.48.77,2.53.59,2.26,4.82.81,5.72-.56.34-1.46.35-2.14.22-4.41-.85-8.83-1.84-13.35-1.33-1.67.19-3.34.77-4.91,1.42-5.47,2.27-10.23,5.55-13.95,10.24-.1.13-.24.23-.36.34l-.28-.2Z"/>
        <path class="cls-2" d="m376.94,23.08l-.46-.33.06-.1c.35-.54.69-1.07,1.03-1.61.83-1.31,1.69-2.67,2.6-3.96.71-.99,1.49-1.94,2.24-2.87.44-.53.89-1.09,1.32-1.64,2.77-3.55,6.62-5.66,11.46-6.28,3.46-.44,7.1-.73,11.14-.88,1.2-.05,2.41.26,3.59.55.31.08.61.15.92.22,1.03.24,1.73,1.1,1.94,2.36.24,1.45-.25,3.06-1.09,3.58-.61.37-1.55.37-2.23.24l-1.11-.21c-3.97-.78-8.08-1.58-12.21-1.11-1.79.2-3.55.86-4.88,1.41-5.83,2.42-10.37,5.75-13.9,10.2-.08.1-.17.18-.27.26-.04.03-.07.06-.11.09l-.08.07Zm-.12-.39l.1.07s.03-.02.04-.03c.09-.07.17-.14.23-.22,3.55-4.48,8.13-7.84,14-10.28,1.34-.56,3.12-1.22,4.94-1.43,4.16-.47,8.29.34,12.28,1.12l1.11.22c.6.11,1.5.13,2.05-.2.76-.47,1.2-1.97.98-3.33-.11-.68-.49-1.87-1.75-2.16-.31-.07-.61-.15-.92-.22-1.16-.29-2.36-.6-3.52-.54-4.03.15-7.67.44-11.12.88-4.77.61-8.57,2.69-11.3,6.18-.43.56-.89,1.11-1.33,1.64-.75.92-1.53,1.87-2.23,2.85-.91,1.29-1.77,2.64-2.6,3.95-.32.51-.64,1.01-.96,1.51Z"/>
      </g>
      <g>
        <path class="cls-2" d="m415.91,26.35c-.87.21-1.8.28-2.58.66-.71.34-1.25,1.02-1.76,1.67-.72.41-1.44.82-2.28,1.29,0,.08.03.35.06.74-.5-.16-.94-.3-1.47-.48-.1.49-.2.97-.33,1.61-.68-.39-1.27-.74-1.96-1.14v1.41c-.47-.18-.83-.33-1.31-.52-.06.42-.12.8-.2,1.3-.45-.15-.87-.29-1.35-.44-.1.31-.19.61-.42,1.33-.28-.6-.45-.98-.63-1.35-.11.06-.23.13-.34.19-.06.43-.12.87-.21,1.48-.63-.54-1.18-1.02-1.94-1.67.12,1.01.21,1.77.33,2.87-.86-.82-1.51-1.43-2.37-2.24v3.31c-.8-1.07-1.35-1.81-2.08-2.8-.42,1.35-.77,2.48-1.12,3.6h-.23v-3.75c-1.04.99-1.82,1.73-2.6,2.47-.06-.03-.11-.07-.17-.1.47-.85.94-1.7,1.54-2.79-1.42.22-2.54.4-3.65.58-.03-.13-.06-.27-.09-.4,2.96-.72,5.89-1.64,8.89-2.11,5.21-.82,10.32-1.76,14.93-4.58.88-.54,2.16-.44,3.26-.63.02.16.04.32.07.48h0Z"/>
        <path class="cls-2" d="m394.04,37.3h-.45v-3.58c-.94.89-1.66,1.58-2.39,2.27l-.06.06-.08-.04s-.06-.04-.1-.06c-.02-.02-.05-.03-.07-.04l-.12-.06.06-.11c.44-.79.88-1.58,1.42-2.57-1.3.2-2.35.37-3.4.54l-.12.02-.14-.63.12-.03c.91-.22,1.83-.47,2.72-.7,2.01-.53,4.09-1.08,6.17-1.41,5.47-.86,10.37-1.8,14.88-4.56.63-.39,1.46-.46,2.25-.53.35-.03.72-.06,1.05-.12l.13-.02.02.13c.02.15.04.29.06.43l.13.13-.21.06c-.27.07-.55.12-.82.17-.59.11-1.21.23-1.73.48-.69.33-1.24,1.02-1.72,1.63l-.04.03c-.7.4-1.4.8-2.21,1.25,0,.05.01.13.02.22.01.12.02.27.04.44v.19s-.28-.09-.28-.09c-.41-.13-.79-.25-1.23-.4l-.06.3c-.07.35-.15.72-.24,1.17l-.03.17-.15-.09c-.41-.24-.79-.46-1.18-.69-.19-.11-.39-.23-.59-.34v1.37l-.17-.06c-.29-.11-.55-.21-.81-.32l-.35-.14c-.05.34-.1.66-.16,1.06l-.04.23-.18-.06c-.4-.13-.77-.26-1.19-.39-.03.09-.06.18-.09.29-.07.22-.16.5-.29.92l-.1.3-.41-.89c-.11-.24-.2-.44-.29-.63-.02.01-.04.02-.07.04l-.1.06-.04.28c-.05.33-.1.69-.16,1.14l-.03.22-.17-.15c-.28-.24-.54-.46-.81-.7-.28-.24-.56-.49-.89-.76.1.86.18,1.57.29,2.55l.04.34-.25-.24c-.76-.72-1.35-1.28-2.07-1.95l-.09-.09v3.4l-.23-.3c-.75-1-1.27-1.71-1.93-2.6l-.31,1.01c-.26.83-.5,1.59-.73,2.35l-.03.09Zm-.2-.25h.01c.23-.73.46-1.46.7-2.26l.46-1.49.15.2c.66.89,1.17,1.58,1.85,2.5v-3.22l.51.48c.64.6,1.18,1.11,1.82,1.72-.1-.92-.18-1.63-.29-2.53l-.04-.32.24.21c.43.36.79.67,1.13.97.21.19.42.37.64.55.05-.35.09-.64.13-.91l.06-.4.21-.12c.06-.03.12-.07.18-.1l.12-.06.06.12c.11.23.22.46.35.75l.14.31c.08-.26.14-.45.19-.61.05-.16.09-.28.13-.41l.04-.12.12.04c.43.13.81.26,1.21.39.07-.43.12-.77.18-1.15l.02-.16.15.06c.18.07.34.14.5.2.21.08.42.17.64.25v-1.44l.19.11c.27.16.53.31.78.45.34.2.67.4,1.03.6.08-.38.14-.7.21-1l.12-.58.13.05c.46.16.86.29,1.29.42,0-.09-.01-.18-.02-.25-.01-.16-.02-.27-.02-.32v-.07l.06-.04c.83-.47,1.54-.87,2.26-1.28.49-.63,1.05-1.33,1.79-1.69.55-.27,1.18-.39,1.79-.5.23-.04.46-.09.69-.14-.01-.08-.03-.17-.04-.25-.31.05-.63.07-.95.1-.77.07-1.56.13-2.14.49-4.56,2.79-9.48,3.73-14.98,4.6-2.07.32-4.14.87-6.15,1.4-.85.23-1.74.46-2.61.67l.04.17c1.07-.17,2.16-.35,3.53-.56l.25-.04-.12.22c-.56,1.02-1.01,1.83-1.45,2.63.74-.7,1.5-1.42,2.49-2.36l.21-.2v3.92Z"/>
      </g>
      <g>
        <path class="cls-2" d="m426.73,76.69c5.32-.04,10.33,1.49,15.44,2.67,3.43.79,6.9,1.4,10.31.19,1.73-.61,3.4-1.53,4.89-2.6,2.38-1.71,2.59-2.81,1.64-5.82,1.29.93,1.59,2.19.9,3.93-.74,1.89-2.21,3.09-3.95,3.97-4.88,2.47-9.87,2.32-15.05.9-4.49-1.24-9.11-2.03-13.66-3.02-.18-.04-.35-.14-.53-.21h0Z"/>
        <path class="cls-2" d="m447.82,81.08c-2.16,0-4.46-.34-6.95-1.03-3.09-.85-6.3-1.5-9.4-2.13-1.4-.28-2.84-.58-4.25-.88-.13-.03-.25-.08-.37-.14-.06-.03-.12-.05-.18-.08l-.18-.07.17-.17h.06c4.34-.04,8.56.99,12.64,1.98.94.23,1.88.46,2.83.68,3.31.76,6.83,1.4,10.24.19,1.62-.57,3.3-1.46,4.86-2.58,2.27-1.63,2.55-2.64,1.59-5.68l-.11-.36.31.22c1.34.97,1.65,2.3.94,4.08-.67,1.71-1.94,2.99-4.01,4.04-2.56,1.29-5.24,1.94-8.19,1.94Zm-20.41-4.26c1.37.3,2.76.58,4.11.85,3.1.63,6.32,1.28,9.42,2.14,5.84,1.6,10.6,1.32,14.96-.89,2.01-1.02,3.25-2.26,3.89-3.9.61-1.53.44-2.66-.54-3.53.8,2.67.59,3.85-1.81,5.57-1.58,1.13-3.28,2.04-4.92,2.62-3.48,1.23-7.04.58-10.38-.19-.95-.22-1.89-.45-2.83-.68-3.84-.94-7.81-1.91-11.89-1.98Z"/>
      </g>
      <g>
        <path class="cls-2" d="m457.79,69.56c-6.52,1.15-24.39,5.74-30.91,6.89-.07-.07-.14-.13-.21-.2.34-.22,8.89-2.42,12.11-3.36.49-.14.96-.32,1.45-.42,3.65-.77,6.94-2.03,10.67-2.73,1.83-.34,3.7-.45,5.55-.63.43-.04.88.05,1.32.09v.36h.02Z"/>
        <path class="cls-2" d="m426.83,76.58l-.05-.05s-.06-.06-.1-.09c-.04-.04-.08-.07-.12-.11l-.11-.11.13-.08c.2-.13,2.44-.73,6.07-1.71,2.3-.62,4.68-1.26,6.07-1.66.17-.05.34-.1.5-.15.31-.1.63-.2.96-.27,1.69-.36,3.33-.83,4.92-1.28,1.84-.53,3.75-1.07,5.75-1.45,1.41-.26,2.86-.39,4.26-.51.43-.04.87-.08,1.3-.12.33-.03.66.01.98.05.12.01.24.03.36.04h.11v.48h-.1l.02.12c-3.26.57-9.45,2.03-15.45,3.44-6,1.41-12.2,2.87-15.46,3.45h-.06Zm.06-.29s.02.02.02.02c3.27-.58,9.43-2.03,15.39-3.43,5.92-1.39,12.04-2.83,15.34-3.42v-.15c-.08,0-.17-.02-.25-.03-.31-.04-.63-.08-.93-.05-.43.04-.87.08-1.3.12-1.4.12-2.84.25-4.24.51-1.99.37-3.89.92-5.73,1.44-1.59.46-3.24.93-4.94,1.28-.31.06-.61.16-.93.26-.17.05-.34.11-.51.16-1.39.41-3.77,1.05-6.07,1.67-2.43.65-5.14,1.38-5.84,1.62Z"/>
      </g>
      <g>
        <path class="cls-2" d="m428.11,116.04c-.87,7.04-1.03,14.02,1.64,20.78-3.81-6.67-4.12-13.62-1.64-20.78Z"/>
        <path class="cls-2" d="m429.64,136.88c-3.67-6.42-4.22-13.45-1.65-20.88l.39-1.12-.15,1.17c-.77,6.25-1.18,13.59,1.63,20.72l-.22.11Zm-1.8-19.6c-1.91,6.32-1.51,12.33,1.19,17.9-2.01-6.17-1.8-12.41-1.19-17.9Z"/>
      </g>
      <g>
        <path class="cls-2" d="m460.56,67.63c-.83-1.43-1.57-2.92-2.51-4.27-1.25-1.79-2.38-2.13-4.3-1.15-1.86.95-3.68,1.29-5.77,1.07-2.77-.28-4.79,1.03-7.29,2.61-1.32.94-12.65,9.16-13.78,9.74,2.57-2.14,15.57-12.15,18.9-12.95,1.07-.26,2.27.07,3.39-.03,1.2-.11,2.5-.16,3.56-.66,2.99-1.4,4.38-1.14,6.1,1.66.75,1.23,1.32,2.57,1.97,3.86-.08.04-.17.08-.25.12h-.02Z"/>
        <path class="cls-2" d="m425.96,76.26l.87-.72c2.92-2.43,15.69-12.19,18.95-12.98.64-.15,1.32-.11,1.98-.06.47.03.96.07,1.42.03.15-.01.31-.03.46-.04,1.06-.09,2.15-.18,3.05-.61,3.14-1.47,4.54-1.08,6.26,1.71.52.86.96,1.78,1.39,2.67.19.4.39.81.59,1.2l.06.11-.11.06s-.08.04-.12.06c-.04.02-.09.04-.13.06h-.06s-.07.01-.07.01l-.06-.06c-.26-.44-.5-.89-.75-1.33-.54-.98-1.11-2-1.75-2.93-1.23-1.75-2.31-2.05-4.14-1.11-1.88.96-3.74,1.3-5.84,1.08-2.68-.28-4.63.96-7.09,2.52l-.12.07c-.24.17-.82.59-1.61,1.16-3.65,2.63-11.25,8.11-12.18,8.59l-1,.52Zm20.83-13.55c-.33,0-.64.02-.95.1-2.66.64-11.79,7.38-16.53,11.07,2.84-1.99,7.36-5.24,9.69-6.92.79-.57,1.37-.99,1.62-1.16l.12-.08c2.41-1.52,4.49-2.83,7.25-2.55,2.05.21,3.87-.12,5.7-1.06,1.95-1,3.16-.67,4.46,1.19.65.94,1.22,1.96,1.77,2.95.23.41.46.83.69,1.24.01,0,.03-.01.04-.02h0c-.18-.36-.36-.73-.53-1.1-.42-.88-.86-1.8-1.38-2.64-1.64-2.68-2.92-3.02-5.94-1.61-.94.45-2.06.54-3.14.63-.16.01-.31.03-.46.04-.48.04-.98,0-1.46-.03-.33-.02-.65-.05-.96-.05Z"/>
      </g>
      <g>
        <path class="cls-2" d="m441.16,45.97c-.73,2.07-1.91,3.44-3.58,4.34-.33.18-1.17-.08-1.44-.41-.64-.79-.56-1.75.19-2.45,1.29-1.2,2.89-1.47,4.82-1.47h0Z"/>
        <path class="cls-2" d="m437.29,50.49c-.44,0-1.02-.24-1.25-.51-.68-.84-.6-1.87.2-2.62,1.41-1.31,3.16-1.5,4.85-1.5l.35-.35-.17.51c-.72,2.03-1.91,3.48-3.64,4.41-.09.05-.21.07-.35.07Zm3.69-4.39c-1.6.01-3.25.22-4.56,1.44-.7.65-.77,1.55-.18,2.28.24.29,1.02.52,1.28.38,1.65-.89,2.75-2.19,3.46-4.09Z"/>
      </g>
      <g>
        <path class="cls-2" d="m453.03,43.85c.91,1.17,1.02,3.26.22,3.97-.33.29-1.02.27-1.53.21-.12,0-.33-.81-.2-1.13.4-.99.94-1.93,1.51-3.05Z"/>
        <path class="cls-2" d="m452.29,48.19c-.18,0-.37-.01-.58-.04-.09,0-.14-.09-.15-.12-.13-.21-.28-.86-.15-1.19.29-.72.66-1.41,1.04-2.15.15-.29.31-.59.47-.91l.09-.18.12.16c.95,1.22,1.06,3.39.21,4.14-.21.19-.56.28-1.04.28Zm-.52-.28c.7.08,1.18.01,1.4-.18.72-.64.63-2.5-.12-3.64-.13.25-.26.49-.38.73-.38.73-.75,1.42-1.03,2.13-.1.24.05.84.13.96Zm-.04,0s0,0,0,0c0,0,0,0,0,0Z"/>
      </g>
      <g>
        <path class="cls-2" d="m433.63,54.06c-4.53,1.16-7.23-.44-7.04-4.18.59,4.36,3.66,4.53,7.04,4.18Z"/>
        <path class="cls-2" d="m430.96,54.56c-1.29,0-2.35-.32-3.13-.95-.98-.8-1.45-2.09-1.37-3.73h.25c.59,4.35,3.73,4.39,6.9,4.06l.04.25c-.98.25-1.89.38-2.7.38Zm-4.14-3.14c.18.84.58,1.51,1.17,2,.81.66,1.96.96,3.38.89-1.96-.06-3.73-.66-4.54-2.88Z"/>
      </g>
      <g class="cls-1">
        <g class="cls-1">
          <path class="cls-2" d="m144.63,131.58h2.08v21.08h-2.08v-21.08Zm3.11,10.34l8.41-10.34h1.05l-7.68,9.35,9.48,11.73h-2.52l-8.75-10.74Z"/>
        </g>
        <g class="cls-1">
          <path class="cls-2" d="m159.44,142.23c0-6.43,3.93-10.99,9.86-10.99s9.9,4.5,9.9,10.9-3.94,10.87-9.9,10.87-9.86-4.47-9.86-10.78Zm17.53.38c0-4.32-2.09-10.49-7.78-10.49-4.6,0-7.54,3.87-7.54,9.59,0,4.25,2.07,10.42,7.75,10.42,4.64,0,7.57-3.84,7.57-9.52Z"/>
          <path class="cls-2" d="m181.49,150.68l.44-.73c1.64,1.13,4.23,2.2,6.42,2.2,3.22,0,5.29-1.8,5.29-4.37,0-2.24-1.85-3.69-5.24-5.24-3.15-1.48-6.04-3.12-6.04-6.18s2.64-5.1,6.58-5.1c2.14,0,4.25.73,5.84,1.88l-.44.73c-1.58-1.1-3.47-1.74-5.54-1.74-2.67,0-4.6,1.55-4.6,3.74s2.43,3.57,5.35,4.94c3.78,1.77,5.95,3.47,5.95,6.47,0,3.47-2.99,5.74-7.18,5.74-2.33,0-4.92-1.04-6.83-2.33Z"/>
          <path class="cls-2" d="m201.39,131.58l7.21,15.53.51,1.16.53-1.29,6.9-15.4h2.05v21.08h-2.09v-16.2l.06-2.8-7.62,17.01h-.83l-7.95-16.92.07,1.68v17.23h-.88v-21.08h2.05Z"/>
        </g>
        <g class="cls-1">
          <path class="cls-2" d="m224.24,131.58h11.95v.86h-9.87v8.96h7.06v.86h-7.06v9.52h10.47v.86h-12.55v-21.08Z"/>
        </g>
        <g class="cls-1">
          <path class="cls-2" d="m244.56,132.46h-6.74v-.88h15.54v.88h-6.71v20.2h-2.09v-20.2Z"/>
          <path class="cls-2" d="m256.55,131.58h2.08v21.08h-2.08v-21.08Z"/>
          <path class="cls-2" d="m264.28,131.58h2.08v21.08h-2.08v-21.08Zm3.11,10.34l8.41-10.34h1.05l-7.68,9.35,9.48,11.73h-2.52l-8.75-10.74Z"/>
          <path class="cls-2" d="m283.87,131.58l7.21,15.53.51,1.16.53-1.29,6.9-15.4h2.05v21.08h-2.09v-16.2l.06-2.8-7.62,17.01h-.83l-7.95-16.92.07,1.68v17.23h-.88v-21.08h2.05Z"/>
          <path class="cls-2" d="m306.72,131.58h11.95v.86h-9.87v8.96h7.06v.86h-7.06v9.52h10.47v.86h-12.55v-21.08Z"/>
          <path class="cls-2" d="m322.71,131.58h2.08v21.08h-2.08v-21.08Z"/>
        </g>
        <g class="cls-1">
          <path class="cls-2" d="m328.48,150.68l.44-.73c1.64,1.13,4.23,2.2,6.42,2.2,3.22,0,5.29-1.8,5.29-4.37,0-2.24-1.85-3.69-5.24-5.24-3.15-1.48-6.04-3.12-6.04-6.18s2.64-5.1,6.58-5.1c2.14,0,4.25.73,5.84,1.88l-.44.73c-1.58-1.1-3.47-1.74-5.54-1.74-2.67,0-4.6,1.55-4.6,3.74s2.43,3.57,5.35,4.94c3.78,1.77,5.95,3.47,5.95,6.47,0,3.47-2.99,5.74-7.18,5.74-2.33,0-4.92-1.04-6.83-2.33Z"/>
        </g>
        <g class="cls-1">
          <path class="cls-2" d="m350.27,132.46h-6.74v-.88h15.54v.88h-6.71v20.2h-2.09v-20.2Z"/>
          <path class="cls-2" d="m362.25,131.58h11.95v.86h-9.87v8.96h7.06v.86h-7.06v9.52h10.47v.86h-12.55v-21.08Z"/>
          <path class="cls-2" d="m389.8,152.66l-6.15-9.42h-2.17l-.03-.73h2.14c3.76,0,5.71-2.12,5.71-5.05s-1.95-5.01-5.6-5.01h-3.38v20.21h-2.08v-21.08h5.96c4.64,0,7.29,2.39,7.29,5.83,0,3.09-2.2,5.21-5.86,5.71l6.65,9.54h-2.49Z"/>
          <path class="cls-2" d="m396.06,131.58h2.08v21.08h-2.08v-21.08Z"/>
          <path class="cls-2" d="m404.6,133.91l.07,1.73v17.02h-.88v-21.08h1.6l12.88,18.49-.04-1.35v-17.14h.86v21.08l-1.35.09-13.14-18.84Z"/>
        </g>
      </g>
    </g>
  </g>
</svg>