<?xml version="1.0" encoding="UTF-8"?>
<svg id="Layer_2" data-name="Layer 2" xmlns="http://www.w3.org/2000/svg" viewBox="0 0 511.18 151.77">
  <defs>
    <style>
      .cls-1 {
        fill: #4d4d4d;
      }

      .cls-1, .cls-2, .cls-3, .cls-4, .cls-5, .cls-6, .cls-7, .cls-8, .cls-9, .cls-10, .cls-11 {
        stroke-width: 0px;
      }

      .cls-2 {
        fill: #138140;
      }

      .cls-3 {
        fill: #128241;
      }

      .cls-4 {
        fill: #118241;
      }

      .cls-5 {
        fill: #c63935;
      }

      .cls-6 {
        fill: #c63836;
      }

      .cls-7 {
        fill: #b2b1b2;
      }

      .cls-8 {
        fill: #b2b2b2;
      }

      .cls-9 {
        fill: #b2b2b3;
      }

      .cls-10 {
        fill: #b3b3b3;
      }

      .cls-11 {
        fill: #fff;
      }
    </style>
  </defs>
  <g id="Layer_1-2" data-name="Layer 1">
    <g>
      <path class="cls-7" d="m351.92,73.67c-5.87-15.2-11.71-30.41-17.68-45.57-1.08-2.74-1.17-6.4-3.7-7.94-2.47-1.52-5.85-.48-8.83-.51-4.47-.05-4.48.02-6.09,4.18-5.75,14.89-11.52,29.77-17.23,44.68-.95,2.47-1.01,2.84-2.41,7.38-.27.86.38,1.73,1.28,1.74,2.24,0,4.21.03,6.17,0,4.38-.08,5.34-.79,6.88-5.04.68-1.87,1.39-3.75,1.89-5.67.47-1.78,1.53-2.34,3.26-2.32,4.16.06,8.33-.04,12.49.03,8.69.13,6.77-1.24,9.6,6.72.33.94.65,1.89.98,2.83.74,2.12,2.3,3.3,4.48,3.38,2.7.1,5.4.05,8.36.04.9,0,1.54-.89,1.26-1.74s-.47-1.49-.73-2.14v-.03Zm-22.94-18.08c-3.47-.08-6.95-.02-10.42-.03-1.43,0-2.29-.61-1.79-2.12,1.97-5.89,3.99-11.77,6.15-18.09.4-1.17,2.04-1.22,2.51-.08.93,2.27,1.43,4.41,2.15,6.45,1.28,3.58,2.48,7.18,3.67,10.79.67,2.03.07,3.13-2.28,3.08h.01Z"/>
      <g>
        <g id="Layer_1-2" data-name="Layer 1-2">
          <g>
            <path class="cls-1" d="m483.28,48.81c1.07,1.22,2.63,1.06,3.98,1.2,5.96.65,11.78-.79,17.73-1.01-.76-4.38-3.16-6.41-7.08-6.33-2.04.04-3.64-.89-5.28-2.33,2.29-.65,3.74,2.12,5.92,1.18-2.75-3.47-9.88-5.73-13.4-4.3l.07.06c-.66-2.08-2.68-2.07-4.32-2.85.52-1.01,1.81.1,2.33-.84-.59-1.27-1.89-1.31-2.9-1.83-2.33,2.35-3.47,5.81-7.22,6.18l.05.05c8.49-5.77,8.95-16.35,3.7-26.54-1.63-3.16-4.07-5.6-6.8-7.8-1.19-.96-2.6-1.72-3.49-3.31,1.62-.78,2.58.32,3.52,1.1,7.38,6.03,11.35,13.77,11.31,23.36,0,2.15.65,3.14,2.66,3.86,8.49,3.08,15.86,8.04,22.7,13.87,2.24,1.9,5.08,3.75,4.28,7.02-.81,3.32-4.07,4.74-7.11,5.35-5.98,1.19-12.06.67-18.1.27-5.38-.36-10.58-1.75-15.94-3-1.41,2.97-2.16,5.71-.65,8.94,2.06,4.42,2.52,9.23,2.64,14.11.22,9.25-1.25,18.24-3.48,27.16-.38,1.51-1.36,2.56-2.56,3.41-3.73,2.62-7.44,5.26-11.24,7.77-3.39,2.24-5.57,1.49-7.16-2.33-2.46-5.89-4.83-11.82-7.33-17.69-.5-1.18-.83-2.59-2.5-3.37-2.6,7.45-6.77,13.11-15.96,12.65,1.65,3.83,2.77,7.43,3.25,11.21.11.86.26,2.06,1.69,2.16.98.07,1.79.69,1.52,1.77-.28,1.11-1.11,2.02-2.29,2.2-2.37.36-4.44-.17-5.8-2.47.34-1.96,3.84-1.27,3.34-3.97-.72-3.94-1.24-7.94-3.72-11-6.66,2.21-5.9,9.05-8.9,13.96-.9-3.06.57-5.23,1.27-7.51,1.21-3.95-2.81-9.56-6.83-8.83-7.83,1.44-14.6-1-21.12-4.8-1.98-1.15-3.89-1.61-6.03-.65-9.55,4.3-17.15.59-23.99-5.95-1.6-1.52-2.93-3.33-4.35-4.94,6.69-1.24,13.89-1.2,21.14-2.99-.42-2.31,1.34-2.77,3.33-3.1-.59-1.82-2.11-3.35-.53-4.98-1.42-1.96-4.42-.82-5.44-3.3.71-1.21,2.36-.22,3.2-1.23-.15-1.86-3.14-2.06-2.54-4.31,6.54-1.58,6.94-2.15,4.2-6.34-1.59.87-3.22.81-4.98.2-2.79-.96-5.63-.18-8.26.68-8.09,2.62-14.78,1.01-20-5.91-.67-.89-1.46-1.75-2.35-2.39-5.05-3.65-7.63-8.37-5.52-14.53,2.23-6.52,1.59-14.35,7.96-19.06,4.27-3.16,8.95-5.77,13.23-8.88,8.48-6.13,16.88-3.24,25.44-.77,13.62,3.93,25.51,10.66,34.9,21.46.37.42.71.88,1.38.69.25-6.6,2.36-8.88,9.44-9.31,10.34-.63,20.61.63,30.88,1.6.98.09,1.96.19,2.91.28,2.77-8.81-2.54-14.83-7.07-21.81,4.33,1.74,4.69,6.31,8,8.76-.18-3.42-2.31-5.54-3.36-8.18,1.27-.04,1.83.9,2.27,1.71,3.15,5.71,5.91,11.59,6.39,18.22.12,1.73.69,2.76,2.32,3.17,3.45.86,6.9,1.71,10.38,2.56.84-5.88-1.15-11.39-6.6-18.74.82-.84,1.42-.06,1.93.36,5.05,4.11,7.86,15.51,5.15,21.41-.9,1.95-1.61,4.34-4.36,4.67l.05.04c.6-1.43,2.47-2.01,2.58-3.91-1.75-1.12-3.43-1.81-4.98.56-.42-3.35-2.85-2.87-5.19-3.07.05,1.55,1.87,1.41,1.89,2.97-2.29.37-4.46.33-6.57-1.59-1.37,3.8-4.59,4.78-7.88,5.71,2.92-1.98,5.89-3.89,7.51-7.14,1.53-3.06,3.93-5.98,2.15-10.1-2.25,1.56-.09,4.22-1.87,5.33.96-4.49,2.35-9.24-1.52-13.54.44,3.81,1.79,7.56.39,11.45-1.32,3.66-2.16,7.51-5.56,9.93-.28-.17-.55-.34-.82-.5.78-1.27,1.56-2.53,2.47-4.01-4.8-.9-9.5-2.45-14.2-2.49-5.33-.04-10.64.42-16-.18-2.29-.26-4.3,1.43-5.19,3.66-.8,2,1.17,2.79,2.23,4.01,2.72,3.14,6.63,4.03,10.14,5.65,2.79,1.29,5.71,2.28,8.15,4.24-6.66-2.85-13.81-4.67-19.53-9.46-1.46-1.23-3.01-2.66-2.49-4.82.56-2.29,2.69-3.2,4.67-3.22,8.75-.1,17.57-2.1,26.26.74,2.34.77,4.75.64,7.22.31-.21-1.92-1.51-1.88-2.52-1.96-9.59-.81-19.19-1.66-28.83-1.58-.9,0-1.8.03-2.69.13-3.18.34-5.54,1.91-6.45,5.03-.66,2.27,1.83,6.6,4.12,7.83,24.36,13.11,50.69,18.36,78.02,19.63,2.63.12,5.13-.37,7.57-1.23,3.69-1.31,4.26-3.08,2.08-6.33-1.08-1.61-2.46-2.83-4.66-3.3-.08,1.67,1.04,2.27,1.88,3.06,1.03.96,1.97,2.06,1.26,3.51-.67,1.37-2.17,1.31-3.5,1.52-9.57,1.52-18.9-.22-28.38-1.4-7.15-.88-13.67-2.95-20.17-5.63-3.49-1.44-7.22-1.88-10.89-2.65,5.02.92,10.34,0,15.04,2.87,1.53.94,3.04,2.44,5.21,1.16.28-.17,2.31-.4,1.59,1.56-.13.38.95.76,1.65.81,5.34.45,10.66.91,16,1.36l-.06-.06h-.02v-.03Zm13.02-10.93c.47.47.92,1.01,1.69.52.28-.96-.43-1.09-1.05-1.3-4.97-3.35-10.47-5.54-16.56-8.15,2.23,3.59,4.42,4.76,15.92,8.93h0Zm-42.07,69.43c2.82-3.45,3.01-7.84,4.2-11.87.38-1.28.11-2.85,1.77-4.06.09,6.83-1.68,12.79-4.53,18.63,3.91-1.48,6.91-4,10.18-6.79-1.36-.84-1.38-1.75-1.07-3.1.55-2.33.98-4.84.67-7.16-.86-6.43-11.12-12.9-17.86-11.28,1.42,1.12,3.01,1.1,4.44,1.51,3.82,1.11,7.45,2.47,9.45,6.29-.19.18-.38.34-.57.52-2.85-1.98-5.48-4.42-9.57-4.58,2.81,1.87,3.99,4.07,2.28,7.08-.09.17-.06.45,0,.66,1.2,4.69.57,9.48.67,14.22-1.83.08-1.1-1.3-1.13-2.12-.08-2.89-.02-5.79-.11-8.69-.04-1.29,0-2.72-1.62-3.32-.9,5.77.4,15.59,2.23,16.8,1.06-.73.49-1.81.57-2.74h0Zm9.76-21.11c.24.28.49.56.76.88.43-.65.26-1.03-.26-1.33-3.35-8.92-10.25-13.02-19.69-13.89,1.65-1.81,3.35-1.62,4.92-1.45,8.08.87,17.17,11.21,17.44,19.28.12,3.59-1.03,7.1-.4,10.7,1.26-3.2,1.11-6.65,1.85-9.88,2.14-9.3,1.1-18.47-.36-27.67-.34-2.14-1.59-3.87-3.34-5.28-4.81-3.86-10.35-3.26-15.68-2.21-4.33.86-4.86,2.28-5,6.9-.09,2.8-.51,5.58-.59,8.38-.11,3.44-1.17,6.83-.67,10.34,10.39-2.19,12.82-1.57,21,5.23h.02Zm-43.07-46.77c-2.12-3.39-4.69-5.92-7.2-8.4-7.47-7.39-14.83-15.01-24.94-18.98-7.22-2.85-14.74-4.59-22.35-5.98-1.62-.3-3.12-.05-4.61.51-8.84,3.33-16.42,8.63-23.4,14.89-.88.78-1.42,1.7-1.56,2.87-.62,4.91-1.81,9.69-3.2,14.42-.56,1.9-.23,3.49,1.05,4.98,3.93,4.6,7.74,9.25,12.71,12.89,2.53,1.85,4.94,1.85,7.45,1.21,1.52-.39,3.1-.42,4.55-.88,4.71-1.53,9.66.89,14.33-1,1.05.96.93,2.83,2.48,3.33,3.2-1.25,6.84-.64,9.67-3.06,1.5-1.28,3.54-1.91,5.25-2.97,4.89-3.05,10.72-4.52,14.76-9.02.92-1.02,2.62-1.81,3.99-1.48,4.4,1.07,7.26-1.97,11.03-3.32h0Zm-3.11,2.41c-.23,4.42-4.61.8-4.98,4.11-1.27-.65-1.85-3.27-3.52-.94.48,1.26,2.1,1.56,2.04,3.45-5.12.75-9.09,3.16-10.02,9-3.71-1.69-1.34-3.94-.77-5.83-3.59-.86-5,.35-6.12,5.03,4.9.69-.2,5,2.77,6.45-1.75,1.09-3.21,1.93-4.59,2.88-1.38.94-2.68,2-4.01,2.99-1.44-.52-2.07-1.69-2.78-2.85-1.03-1.69-2.06-3.41-3.33-4.93-1.33-1.59-3.22-1.42-4.98-.8-1.83.63-1.93,2.22-1.89,3.89.05,2.49.32,4.8,3.37,6.25-.56-1.85-1.03-3.21-1.37-4.6-.37-1.54-1.51-3.39.95-4.2,1.65-.54,5.07,1.8,4.97,3.53-.09,1.63.61,2.68,1.33,3.95.5.9,2.04,2.6-.34,3.01-2.58.45.51,3.03-1.56,3.42.73.92,1.67,1.54,2.85,1.54,1.59,0,1.56-1.3,1.75-2.39.12-.75.04-1.63,1.19-1.95.27,1.63.53,3.24.82,4.85.52,2.94,1.66,5.04,5.27,4.6,4.06-.49,7.42.95,10.14,4.07,1.32,1.51,2.9,2.81,4.4,4.15.98.9,1.99,1.88,3.43,1.88,7.57,0,15.2.13,21.53-5.15.06-.05.36.17.61.3-.53,2.23-1.77,3.88-4.06,4.39-4.11.92-8.1,2.43-12.47,1.91-2.31-.28-4.67-.05-7.08-.05-.22,2.23-1.51,3.66-2.52,5.17,3.68,3.57,3.79,3.53,6.02-.96.27-.55.28-1.61,1.44-1.41.07,1.82-.71,3.26-1.62,4.71-.55.88-2.46,1.84-.61,2.91,1.31.76,2.04-.8,2.8-1.74,1.71-2.12,1.74-5,3.15-7.37,2.83,2.37,6.27-.98,9.24,1.19-1.75,1.37-3.51.65-5.13.9-1.66.26-3.91.32-3.63,2.49.22,1.75,2.46,1.46,3.97,1.61.22.02.46.01.67-.04,5.41-1.34,8.45-5.1,10.44-10.04,1.67-4.13,2.4-7.98-2.08-10.9-.18-.11-.15-.53-.24-.9,2.7.39,3.97,3.08,6.72,3.63,1.78-7.55,2.21-15.13,2.23-22.73,0-2.56.63-4.3,3.16-5.19,2.35-.83,2.6-2.32,1.41-4.49-1.77-3.22-4.12-5.54-7.8-6.35-4.99-1.09-9.48-3.33-13.79-5.98-.96-.59-1.94-1.63-3.51-.46,1.9,2.97,5.13,3.6,7.66,4.65.77,4.26-1.59,8.15-.53,12.24,5.09.59,5.54.98,6.8,6.21.18.72.38,1.28,1.03,1.57,1.96.88,3.68,2.14,3.21,4.48-.45,2.29-2.38,3.57-4.62,3.71-3.12.19-3.77,2.19-3.93,4.64-.13,2.01-.09,4.03-.03,6.04.09,2.83.07,3.1-1.36,5.78.84-5.5-1.55-10.56.45-15.84-2.37.3-3.5.82-2.68,2.9.71,1.79.37,3.48-1.07,4.79,2.56,3.26,2.93,6.64.9,8.59-3.26,3.16-12.25,4.8-15.36,2.02,1.48-.9,2.75-1.15,4.55-.17,1.65.9,3.95,1.28,5.44-.8,1.27-1.77,2.76-2.97,5.05-2.27.62-2.19.7-3.93-.98-5.48-1.77-1.63-3.75,1.2-5.46-.22.22-1.53,2.25-1.28,2.27-3.06-3.79,1.17-7.37,1.13-10.43-2.2-2.52,3.08-5.91,3.49-9.36,3.45-4.57-.05-7.71-2.48-8.17-6.2,1.96.86,3.84,1.79,5.8,2.49,1.66.59,3.43.45,4.73-.82,1.3-1.27-.57-2.37-.63-3.68,2.81-.92,5.84-.74,8.52-1.98,2.97-1.37,3.3-2.98,1.16-5.42-.41-.47-1.22-.7-1.02-1.64h4.07c-.99,2.13-.05,3.34,1.79,3.94,2.12.69,4.26,1.11,4.49-2.29,1.98,1.05,3.62,1.68,5.46,1.81,2.02.15,3.55-.36,4.34-2.33.75-1.86.96-3.71-.45-5.38-1.35-1.61-2.83-1.54-4.8-.83-5.99,2.14-9.16-.18-9.74-7.18,2.45,1.69,2.93-1.11,4.25-1.85,2.37,2.24,3.26,4.91,3.43,7.96,1.63-1.98,1.05-3.86.35-5.75-.34-.91-1.07-1.85-.98-2.72.2-2.05-.04-2.94-1.73-2.89-1.57.05-3.35-.59-4.69,1.28-.53-1.17-.86-1.93-1.61-3.59h0v.03Zm-20.63,46.13c3.57-1.16,5.09.84,6.94,2.16,1.81,1.29,2.83,3.55,5.07,4.44.92-1.68-.31-2.24-1.06-2.95-1.62-1.54-3.37-2.96-4.92-4.57-2.95-3.08-6.51-3.48-10.18-2.01-4.38,1.76-8.65,3.64-13.58,2.17,1.2,7.87,19.86,14.7,27.36,10.19-1.92-2.71-5.21-1.56-7.62-2.73-2.49-1.21-4.54-2.75-5.52-5.36,5.4,3.2,9.07,4.49,11.02,3.86-1.46-2.83-4.26-3.72-7.51-5.19h0Zm48.81-42.94c.38,3.36,2.23,5.51,2.83,7.99,1.32-.09,2.41-.19,3.51-.26,3.91-.24,7.6.63,11.11,2.26,1.43.67,2.55.36,3.68-.49.84-.63.9-1.5.64-2.41-.4-1.44-1.67-1.16-2.72-1.39-2.39-.52-4.78-1.09-7.12-1.79-1.53-.46-2.85-.36-4.01,1.03-1.56-3.53-5.1-2.89-7.9-4.95h-.02Zm-90.21,42.77c8.7,8.36,15.16,9.08,23.69,4.46-.14-.3-.28-.85-.42-.85-7.93,0-15.82-.15-23.28-3.61h.01Zm16.57-4.83c-5.81,1.03-11.41,1.32-17.04,1.98,2.65,2.11,5.56,3.26,8.79,3.66,1.49.19,3.2,1.48,4.42.11,1.52-1.71,2.58-3.82,3.84-5.76h-.01Zm66.77,3.1c2.55,7.16,6.51,13.7,8.98,20.9.02-8.26-2.9-15.25-8.98-20.9Zm-62.02-1.25c1.44-.04,2.62,1.7,4.44.56-1.16-1.37-2.92-1.96-3.53-3.64-.27-.74-1.36-.94-1.69-.51-2.06,2.75-5.19,4.75-6.45,8.5,2.92.18,5.4.38,7.62-.8.27-1.6-1.15-2.75-.39-4.11h0Zm65.2,1.15c5,6.13,6.62,13.42,7.54,21.38,1.79-5.38-.92-10.43.38-15.8-1.75-2.31-4.15-4.69-7.93-5.58h0Zm-53.43-5.14c-.13-.82,0-1.9-1.19-2.27-3.55-1.11-5.07,1.98-7.43,3.49,4.63,4.31,6.95,4.7,9.88,1.79-1.07-1.32-3.34-.57-4.19-2.33.85-.84,2,.32,2.94-.68h-.01Zm-8.38-10.95c2.54-4.62,1.86-6.5-2.17-6.56-.04,2.35.54,4.45,2.17,6.56Zm82.98-45.49c-.1.47-.21.94-.31,1.42,3.66.76,7.3,1.52,10.96,2.28-3.39-1.92-6.83-3.59-10.64-3.7h0Zm-30.26,43.69c2.21,1,3.8.56,4.61-1.42.82-2.01-.92-2.3-2.42-3.05-.85,1.44-1.94,2.52-2.19,4.47h0Zm12.51,17.37c1.97,1.65,3.93,3.29,6.35,5.31-.51-4.08-3.13-4.92-6.35-5.31Zm-21.12-30.35c1.19-2.83.34-4.4-1.59-5.67-1.04.86-1.59,1.75-1.42,3.11,1.11.46,2.27.98,3.01,2.56Zm-7.42,20.1c3.35,2.09,4.5,1.92,6.08-.86-1.98.28-3.8.54-6.08.86Zm7.38,2.28c1.56-.85,1.85-2.11.86-3.78-1.17,1.09-.49,2.54-.86,3.78Z"/>
            <path class="cls-1" d="m485.15,37.23c.71,1.4,2.66,1.04,3.46,2.37-3.02,1.7-4.93,1.24-7.18-1.72,1.15-1,2.61-.05,3.8-.59l-.08-.06h0Z"/>
            <path class="cls-1" d="m414.76,116.55c-1.03-4.13,1.99-6.64,3.73-9.67-.2,3.61-3.24,6.15-3.73,9.67Z"/>
            <path class="cls-1" d="m493.05,45.96c3.55-1.69,5.75-.7,8.34,1.24-2.97.55-5.23.13-8.34-1.24Z"/>
            <path class="cls-1" d="m447.57,27.66c-2.83,1.09-4.87,1.25-6.18-1.8,2.49-.78,4.15.32,6.18,1.8Z"/>
            <path class="cls-1" d="m467.46,42.25c2.9-.98,4.98-.61,7.49,1.4-3.1.54-5.25.22-7.49-1.4Z"/>
            <path class="cls-1" d="m425.52,27.08c1.95-.54,3.84-.84,5.83.51-2.18,2.21-4.05,1.31-5.83-.51Z"/>
            <path class="cls-1" d="m442.28,32.95c-2.71-.62-5.32-1.87-8.22-.89,2.46-1.8,3.33-1.72,8.22.89Z"/>
            <path class="cls-1" d="m488.73,45.5c.29,1.94,2.52.91,3.34,2.25-1.69.89-3.16-1.29-4.78-.34l.07.07c.47-2.56-2.02-1.46-3.07-2.52,1.77-1.21,3.01.92,4.5.61l-.05-.06h-.01Z"/>
            <path class="cls-1" d="m463.8,41.71c-2.35-.83-4.86-.13-7.69-.93,3.24-1.98,5.47-.28,7.69.93Z"/>
            <path class="cls-1" d="m488.79,45.56c.07-1.15-1.86-2.43.16-3.42,1.75-.86,2.7.05,3.2,1.62-.65,1.68-2.65.45-3.41,1.74l.06.06h-.01Z"/>
            <path class="cls-1" d="m445.07,35.75c2.01-1.15,3.68-.85,6.05,1.21-2.62.11-4.3-.15-6.05-1.21Z"/>
            <path class="cls-1" d="m468.97,33.67c-3.62.66-5.99-.88-8.59-1.08,2.7-.45,5.21.3,8.59,1.08Z"/>
            <path class="cls-1" d="m461.21,36.8c2.68-1.29,4.4-.73,6.23.78-2.23.98-3.97.24-6.23-.78Z"/>
            <path class="cls-1" d="m432.27,34.21c2.41-.44,4.13-.04,6.16,1.36-2.57.64-4.24.07-6.16-1.36Z"/>
            <path class="cls-1" d="m481.39,41.96c-2.46.16-4.18-1.15-6.22-1.52,2.33-.9,4.38-.84,6.22,1.52Z"/>
            <path class="cls-1" d="m487.29,47.4c-.59,2.61-2.9.3-4.01,1.41,0,0,.06.06.07.06.23-1-1.38-.64-1.16-1.81,1.75-.92,3.43.55,5.17.42l-.07-.07h0Z"/>
            <path class="cls-1" d="m439.43,28.37c-2.26-.5-3.7-.86-5.38-2.05,2.14-.11,3.43.65,5.38,2.05Z"/>
            <path class="cls-1" d="m448.28,32.64c1.69-1.61,3.11-1.59,4.42-1.89-.98,1.21-2.2,1.85-4.42,1.89Z"/>
            <path class="cls-1" d="m473.1,33.92c.33,1.34-.59,1.23-1.61,1.25.44-.7.94-1.09,1.66-1.21l-.05-.04h0Z"/>
            <path class="cls-1" d="m473.11,37.94c.05.68-.37.58-1.25.4.7-.19,1-.27,1.31-.35l-.05-.05h-.01Z"/>
            <path class="cls-1" d="m385.26,26.43c-8.55-3.05-17.5-2.99-26.68-3.45,3.97-2.99,21.19-.92,26.68,3.45Z"/>
            <path class="cls-1" d="m354.87,29.95c3.99-2.44,23.51-.86,27.15,2.37-9.44-.67-18.16-3.16-27.15-2.37Z"/>
            <path class="cls-1" d="m387.67,18.94c-9.17-1.37-18.25-3.74-27.67-3.13,9.54-2.41,18.61.22,27.67,3.13Z"/>
            <path class="cls-1" d="m395.04,17.84c-9.06-3.53-18.48-5.71-28.13-7.11.29-1.53,1.26-1.17,1.88-1.07,8.17,1.39,16.23,3.2,23.92,6.37.89.36,1.92.69,2.32,1.76l.02.04h-.01Z"/>
            <path class="cls-1" d="m348.4,44.84c7.95-2.42,16.06-1.13,24.15-.57-8.04.16-16.04,1.13-24.15.57Z"/>
            <path class="cls-1" d="m351.84,38c7.69-2.64,15.23-1.23,22.74.83-7.53-1.05-15.11-.91-22.68-.87l-.05.05h-.01Z"/>
            <path class="cls-1" d="m356.91,50.41c3.74-.48,7.97-.24,12.47,0-4.55.19-8.83.42-12.47,0Z"/>
            <path class="cls-1" d="m370.72,53.76c-2.88.04-5.79.37-8.69,0h8.69Z"/>
            <path class="cls-1" d="m405.72,54.04c.09,1.63-.64,3.62,2.1,3.94.63.07.76,1.08.38,1.71-.73,1.21-6.37,2.22-7.8,1.43.34-1,1-.55,1.61-.38,1.97.53,2.64-.36,2.53-2.25-.09-1.58.35-3.06,1.22-4.38l-.05-.07h0Z"/>
            <path class="cls-1" d="m405.77,54.1c.47-1.05,1.13-1.92,2.24-2.35,1.24,2.17,3.21,4.01,2.72,7.22-1.18-2.4-1.69-5.22-5-4.93l.05.07h0Z"/>
          </g>
        </g>
        <path class="cls-11" d="m162.6,130.73c5.68-11.22,11.26-21.97,16.54-32.87,1.62-3.33,3.72-4.83,7.36-4.36l6.48.12c2.11.06,2.08.06,2.11,8.36.05,15.13.03,30.27.02,45.4,0,4.6.44,4.16-4.36,4.19-4.99.03-7.49-2.5-7.49-7.61v-30.76s-2.48,4.81-2.48,4.81c-4.04,7.81-8.1,15.62-12.1,23.45-1.21,2.36-2.74,4-5.65,4.16-3.25.17-5.35-1.15-6.79-3.98-3.76-7.4-7.58-14.77-11.39-22.13-.83-1.61-1.74-3.18-3.22-5.86v37.67h-11.18c-.88-.61-.6-1.51-.6-2.28-.02-17.3-.03-34.59,0-51.89,0-3.55.07-3.66,3.45-3.62,12.36.17,9.05-1.72,14.54,8.73,4.71,8.96,9.08,18.1,13.61,27.14l.78,1.31.37.02Z"/>
        <path class="cls-8" d="m175.71,48.17c0-8.31-.03-16.62,0-24.93.02-3.6.09-3.69,3.53-3.7,10.14-.05,20.28-.05,30.42,0,3.42.02,3.42.11,3.52,3.71v.5c-.09,6.72.72,5.87-5.77,5.92-5.15.04-10.31.06-15.46-.01-1.86-.02-2.75.6-2.69,2.56.08,2.99.05,5.98.02,8.97-.02,1.72.82,2.32,2.46,2.3,3.99-.05,7.98-.04,11.97,0,3.64.04,3.73.08,3.73,3.41,0,7.66.64,6.35-6.22,6.47-2.99.05-5.99.08-8.98,0-2.02-.06-3.1.51-2.99,2.78.13,2.82.11,5.65,0,8.47-.09,2.25,1,2.82,3.04,2.79,5.82-.08,11.64.06,17.45-.06,2.51-.05,3.56.67,3.48,3.37-.23,8.22.77,6.76-6.37,6.83-8.31.09-16.62.06-24.94,0-7.04-.04-6.17.91-6.21-5.96-.05-7.81,0-15.62,0-23.43v.02Z"/>
        <path class="cls-9" d="m151.9,29.69h-21.29c-4.57,0-4.38.3-4.38-4.29v-1c.02-5.31-.33-4.87,4.83-4.87,11.65-.01,23.3-.03,34.95.01,3.53.01,3.45.11,3.51,3.66.04,2.68-1.13,4.76-2.59,6.84-7.46,10.61-14.89,21.25-22.32,31.88-.54.77-1.07,1.55-1.58,2.32-.92,1.38.12,3.13,1.78,3.12.01,0,.02,0,.03,0,6.66.06,13.31,0,19.97.04,3.63.02,3.75.08,3.72,3.43-.06,8.24.96,6.65-6.36,6.72-11.48.1-22.97.05-34.45.02-4.02-.01-4.17-.28-3.9-4.27.17-2.44,1.3-4.4,2.66-6.34,7.56-10.74,15.09-21.51,22.6-32.29.94-1.35,2.13-2.55,2.82-4.99h0Z"/>
        <path class="cls-11" d="m308.84,93.54c.54,2.04-.42,3.15-.89,4.34-6.67,16.81-13.48,33.56-20.06,50.4-1.03,2.63-2.23,2.96-5.09,3.34-3.16.04-5.95.22-8.27-.56-1.84-1.39-2.3-4.64-3.29-7.1-6.16-15.4-12.31-30.81-18.45-46.22-.48-1.21-.89-2.46-1.52-4.22,3.33,0,6.28.15,9.21-.04,3.37-.22,5.26,1.28,6.34,4.35,4.03,11.42,8.14,22.81,12.22,34.21.44,1.24.88,2.49,1.39,3.93,4.25-11.93,8.41-23.61,12.58-35.28.45-1.25.87-2.51,1.35-3.75.87-2.25,2.43-3.46,4.93-3.43,3.15.05,6.3.01,9.55.01v.02Z"/>
        <path class="cls-2" d="m119,122.57c0,8.3.03,16.59-.01,24.89-.02,4.02-.09,4.03-4.23,4.1-1.66.03-3.32.02-4.98,0-4.42-.06-4.47-.07-4.49-4.34-.04-6.8-.01-13.61-.01-20.41,0-9.62-.02-19.25.01-28.87.02-4.27.07-4.41,3.98-4.36,11.75.15,9.52-1.76,9.72,9.57.11,6.47.02,12.94.02,19.41h0Z"/>
        <path class="cls-3" d="m82.44,127.1c1.26-.85,2.36-1.59,3.44-2.35,5.74-4.04,7.91-9.76,7.1-16.49-.81-6.78-5.02-11.05-11.36-13.19-2.5-.84-5.09-1.49-7.79-1.47-6.32.03-12.63-.07-18.95-.02-3.59.03-3.71.12-3.72,3.61-.05,16.95,0,33.9-.05,50.85,0,2.44.62,3.76,3.35,3.56,2.15-.16,4.33-.16,6.48,0,2.71.2,3.41-1.1,3.35-3.55-.11-4.82-.08-9.64-.01-14.46.05-3.75,1.45-4.66,4.94-3.45,1.72.59,2.64,1.88,3.47,3.37,2.6,4.63,5.33,9.2,7.88,13.86,1.19,2.17,2.67,3.97,5.23,4.08,3.88.17,7.78.05,12.67.05-5.74-8.49-9.49-17.02-16.02-24.39h0Zm-9.45-6.61c-7.71,1.57-8.74.59-8.74-8.34v-1.99c0-4.22.91-6.42,2.72-6.6,7.73-.77,12.26,1.52,13.11,6.6.81,4.85-2.27,9.35-7.09,10.33Z"/>
        <path class="cls-6" d="m391.1,127.17c.85-.55,1.39-.93,1.96-1.26,6.96-4.08,9.8-10.21,8.71-18.08-.97-7.02-5.93-11.39-14.24-13.37-5.93-1.41-11.92-.77-17.89-.8-3.08-.01-6.95-1.48-9.07.82-1.87,2.03-.61,5.73-.62,8.69-.06,14.8-.05,29.6-.01,44.4,0,3.9.08,3.93,3.76,4.01,2.16.05,4.33-.08,6.49.03,2.17.11,2.93-.83,2.9-2.94-.08-4.99-.07-9.98,0-14.97.05-3.62,1.64-4.6,5.07-3.46,1.77.59,2.59,1.97,3.42,3.42,2.64,4.62,5.32,9.21,7.91,13.86,1.01,1.81,2.17,3.55,4.31,3.81,4.18.5,8.39.32,13.48.09-5.84-8.44-9.47-17.07-16.17-24.24h0Zm-2.21-13.67c-.46,3.23-2.22,5.46-5.27,6.6-.91.34-1.92.47-2.89.56-5.11.49-7.67-1.83-7.67-6.96v-1.49c0-.83-.01-1.65,0-2.48.1-6.43-1.1-6.31,6.56-6.13,6.77.16,10.12,3.82,9.26,9.89h.01Z"/>
        <path class="cls-6" d="m465.36,147.65c-5.87-15.2-11.71-30.41-17.68-45.57-1.08-2.74-1.17-6.4-3.7-7.94-2.47-1.52-5.85-.48-8.83-.51-4.47-.05-4.48.02-6.09,4.18-5.75,14.89-11.52,29.77-17.23,44.68-.95,2.47-1.01,2.84-2.41,7.38-.27.86.38,1.73,1.28,1.74,2.24,0,4.21.03,6.17,0,4.38-.08,5.34-.79,6.88-5.04.68-1.87,1.39-3.75,1.89-5.67.47-1.78,1.53-2.34,3.26-2.32,4.16.06,8.33-.04,12.49.03,8.69.13,6.77-1.24,9.6,6.72.33.94.65,1.89.98,2.83.74,2.12,2.3,3.3,4.48,3.38,2.7.1,5.4.05,8.36.04.9,0,1.54-.89,1.26-1.74s-.47-1.49-.73-2.14v-.03Zm-22.94-18.08c-3.47-.08-6.95-.02-10.42-.03-1.43,0-2.29-.61-1.79-2.12,1.97-5.89,3.99-11.77,6.15-18.09.4-1.17,2.04-1.22,2.51-.08.93,2.27,1.43,4.41,2.15,6.45,1.28,3.58,2.48,7.18,3.67,10.79.67,2.03.07,3.13-2.28,3.08h.01Z"/>
        <path class="cls-8" d="m32.82,21.01c-2.35-.8-4.78-1.41-7.32-1.41-6.83,0-13.65.03-20.48-.12-2.56-.06-3.49.75-3.44,3.4.14,8.49.05,16.98.05,25.46s-.02,16.64,0,24.97c0,4.19.04,4.2,3.92,4.26,2,.03,0,0,5.99.04,2.68-.1,3.4.33,3.48-3.3-.18-4.32.06-8.66-.08-12.98-.08-2.63.96-3.49,3.53-3.43,3.32.09,6.72.19,9.97-.36,10.48-1.8,15.9-7.53,16.89-16.82,1.01-9.42-3.6-16.68-12.52-19.7h0Zm-8.18,26.71c-6.44.91-9.65-2.21-9.64-9.34,0-2.16.03-4.31,0-6.47-.03-1.64.65-2.44,2.36-2.38,2.49.09,5-.1,7.46.2,4.7.58,7.49,4.18,7.35,9.08-.15,5.24-2.68,8.23-7.51,8.91h-.02Z"/>
        <path class="cls-9" d="m102.51,29.69h-21.29c-4.57,0-4.38.3-4.38-4.29v-1c.02-5.31-.33-4.87,4.83-4.87,11.65-.01,23.3-.03,34.95.01,3.53.01,3.45.11,3.51,3.66.04,2.68-1.13,4.76-2.59,6.84-7.46,10.61-14.89,21.25-22.32,31.88-.54.77-1.07,1.55-1.58,2.32-.92,1.38.12,3.13,1.78,3.12.01,0,.02,0,.03,0,6.66.06,13.31,0,19.97.04,3.63.02,3.75.08,3.72,3.43-.06,8.24.96,6.65-6.36,6.72-11.48.1-22.97.05-34.45.02-4.02-.01-4.17-.28-3.9-4.27.17-2.44,1.3-4.4,2.66-6.34,7.56-10.74,15.09-21.51,22.6-32.29.94-1.35,2.13-2.55,2.82-4.99h0Z"/>
      </g>
      <path class="cls-10" d="m67.59,48.58c0,8.3.03,16.59-.01,24.89-.02,4.02-.09,4.03-4.23,4.1-1.66.03-3.32.02-4.98,0-4.42-.06-4.47-.07-4.49-4.34-.04-6.8-.01-13.61-.01-20.41,0-9.62-.02-19.25.01-28.87.02-4.27.07-4.41,3.98-4.36,11.75.15,9.52-1.76,9.72,9.57.11,6.47.02,12.94.02,19.41h0Z"/>
      <path class="cls-10" d="m288.63,48.69c0,8.3.03,16.59-.01,24.89-.02,4.02-.09,4.03-4.23,4.1-1.66.03-3.32.02-4.98,0-4.42-.06-4.47-.07-4.49-4.34-.04-6.8-.01-13.61-.01-20.41,0-9.62-.02-19.25.01-28.87.02-4.27.07-4.41,3.98-4.36,11.75.15,9.52-1.76,9.72,9.57.11,6.47.02,12.94.02,19.41h0Z"/>
      <path class="cls-7" d="m252.43,53.07c1.26-.85,2.36-1.59,3.44-2.35,5.74-4.04,7.91-9.76,7.1-16.49-.81-6.78-5.02-11.05-11.36-13.19-2.5-.84-5.09-1.49-7.79-1.47-6.32.03-12.63-.07-18.95-.02-3.59.03-3.71.12-3.72,3.61-.05,16.95,0,33.9-.05,50.85,0,2.44.62,3.76,3.35,3.56,2.15-.16,4.33-.16,6.48,0,2.71.2,3.41-1.1,3.35-3.55-.11-4.82-.08-9.64-.01-14.46.05-3.75,1.45-4.66,4.94-3.45,1.72.59,2.64,1.88,3.47,3.37,2.6,4.63,5.33,9.2,7.88,13.86,1.19,2.17,2.67,3.97,5.23,4.08,3.88.17,7.78.05,12.67.05-5.74-8.49-9.49-17.02-16.02-24.39h0Zm-9.45-6.61c-7.71,1.57-8.74.59-8.74-8.34v-1.99c0-4.22.91-6.42,2.72-6.6,7.73-.77,12.26,1.52,13.11,6.6.81,4.85-2.27,9.35-7.09,10.33Z"/>
      <path class="cls-4" d="m31.24,95.17c-2.35-.8-4.78-1.41-7.32-1.41-6.83,0-13.65.03-20.48-.12-2.56-.06-3.49.75-3.44,3.4.14,8.49.05,16.98.05,25.46s-.02,16.64,0,24.97c0,4.19.04,4.2,3.92,4.26,2,.03,0,0,5.99.04,2.68-.1,3.4.33,3.48-3.3-.18-4.32.06-8.66-.08-12.98-.08-2.63.96-3.49,3.53-3.43,3.32.09,6.72.19,9.97-.36,10.48-1.8,15.9-7.53,16.89-16.82,1.01-9.42-3.6-16.68-12.52-19.7h0Zm-8.18,26.71c-6.44.91-9.65-2.21-9.64-9.34,0-2.16.03-4.31,0-6.47-.03-1.64.65-2.44,2.36-2.38,2.49.09,5-.1,7.46.2,4.7.58,7.49,4.18,7.35,9.08-.15,5.24-2.68,8.23-7.51,8.91h-.02Z"/>
      <path class="cls-5" d="m314.66,122.21c0-8.31-.03-16.62,0-24.93.02-3.6.09-3.69,3.53-3.7,10.14-.05,20.28-.05,30.42,0,3.42.02,3.42.11,3.52,3.71v.5c-.09,6.72.72,5.87-5.77,5.92-5.15.04-10.31.06-15.46-.01-1.86-.02-2.75.6-2.69,2.56.08,2.99.05,5.98.02,8.97-.02,1.72.82,2.32,2.46,2.3,3.99-.05,7.98-.04,11.97,0,3.64.04,3.73.08,3.73,3.41,0,7.66.64,6.35-6.22,6.47-2.99.05-5.99.08-8.98,0-2.02-.06-3.1.51-2.99,2.78.13,2.82.11,5.65,0,8.47-.09,2.25,1,2.82,3.04,2.79,5.82-.08,11.64.06,17.45-.06,2.51-.05,3.56.67,3.48,3.37-.23,8.22.77,6.76-6.37,6.83-8.31.09-16.62.06-24.94,0-7.04-.04-6.17.91-6.21-5.96-.05-7.81,0-15.62,0-23.43v.02Z"/>
      <path class="cls-11" d="m256.88,147.7c-5.87-15.2-11.71-30.41-17.68-45.57-1.08-2.74-1.17-6.4-3.7-7.94-2.47-1.52-5.85-.48-8.83-.51-4.47-.05-4.48.02-6.09,4.18-5.75,14.89-11.52,29.77-17.23,44.68-.95,2.47-1.01,2.84-2.41,7.38-.27.86.38,1.73,1.28,1.74,2.24,0,4.21.03,6.17,0,4.38-.08,5.34-.79,6.88-5.04.68-1.87,1.39-3.75,1.89-5.67.47-1.78,1.53-2.34,3.26-2.32,4.16.06,8.33-.04,12.49.03,8.69.13,6.77-1.24,9.6,6.72.33.94.65,1.89.98,2.83.74,2.12,2.3,3.3,4.48,3.38,2.7.1,5.4.05,8.36.04.9,0,1.54-.89,1.26-1.74s-.47-1.49-.73-2.14v-.03Zm-22.94-18.08c-3.47-.08-6.95-.02-10.42-.03-1.43,0-2.29-.61-1.79-2.12,1.97-5.89,3.99-11.77,6.15-18.09.4-1.17,2.04-1.22,2.51-.08.93,2.27,1.43,4.41,2.15,6.45,1.28,3.58,2.48,7.18,3.67,10.79.67,2.03.07,3.13-2.28,3.08h.01Z"/>
    </g>
  </g>
</svg>