<?xml version="1.0" encoding="UTF-8"?>
<svg id="Layer_2" data-name="Layer 2" xmlns="http://www.w3.org/2000/svg" xmlns:xlink="http://www.w3.org/1999/xlink" viewBox="0 0 726.74 84.14">
  <defs>
    <style>
      .cls-1 {
        fill: #231f20;
        stroke: #231f20;
        stroke-miterlimit: 10;
      }
    </style>
    <symbol id="Logo" viewBox="0 0 726.74 84.14">
      <g>
        <path class="cls-1" d="m652.34,83.57c-16.82,0-33.65.15-50.47-.06-9.61-.12-17.04-4.47-21.05-13.38-1.38-3.08-1.94-6.75-2.01-10.16-.24-11.82.08-23.64-.13-35.46-.27-15.4,12.19-24.05,24.39-23.97,32.98.2,65.96.17,98.93.03,12.59-.05,24.57,9.08,24.22,24.16-.26,11.48,0,22.98-.07,34.47-.09,14.89-9.53,24.33-24.36,24.37-16.49.04-32.98,0-49.47.01Zm.51-69.93c-15.98,0-31.96,0-47.93,0-1.5,0-3.01-.09-4.49.11-4.82.66-8.25,4.19-8.3,9.04-.14,12.81-.15,25.62,0,38.43.06,5.08,3.63,8.55,8.79,9.16,1.32.16,2.66.09,3.99.09,31.62,0,63.25.01,94.87,0,1.33,0,2.68.08,3.99-.08,5.16-.62,8.73-4.06,8.79-9.18.17-12.81.16-25.62,0-38.43-.06-5.16-3.63-8.59-8.79-9.09-1.49-.14-2.99-.08-4.49-.08-15.48,0-30.96,0-46.44,0Z"/>
        <path class="cls-1" d="m380.29.81v12.84c-2.03,0-3.82,0-5.6,0-32.47,0-64.94,0-97.41,0-9.91,0-18.27,3.48-24.42,11.34-12.4,15.84-4.64,38.63,15.05,44.32,2.52.73,5.23,1.16,7.85,1.17,29.47.08,58.94.05,88.42.03.65,0,1.3-.12,2.67-.25.26-7.06.16-14.07.04-21.52h-23.73c-2.91-4.26-5.61-8.2-8.73-12.76h45.33c1.03,3.71,1.41,35.21.54,47.04-1.01.17-2.09.5-3.18.5-33.47.03-66.94.15-100.4-.04-18.79-.11-35.6-12.06-41.17-28.65-6.32-18.84,1.9-38.94,19.99-48.79,6.23-3.39,12.92-5.38,20.01-5.4,33.8-.08,67.6-.04,101.4-.04.97,0,1.95.12,3.34.21Z"/>
        <path class="cls-1" d="m147.28.61c-4.05,4.48-7.32,7.99-10.45,11.6-1.6,1.84-3.62,1.37-5.56,1.37-23.15.02-46.3,0-69.45.01-6.66,0-13.33-.11-19.98.06-16.11.41-28.51,13.56-28.06,29.61.39,13.58,12.63,26.22,26.68,27.06,7.47.45,14.98.18,22.48.12,1.06,0,2.44-.37,3.11-1.09,6.1-6.55,12.07-13.21,18.76-20.58h-23.64c-2.98-4.32-5.76-8.35-8.95-12.98h62.17c-.67,1.07-1.09,2.06-1.77,2.81-12.86,14.19-25.72,28.37-38.67,42.47-1.02,1.11-2.71,2.27-4.08,2.26-11.14-.06-22.41.57-33.4-.84C14.19,79.62-4.79,57.67,1.84,32.26,6.24,15.42,18.03,5.64,34.71,1.6c2.72-.66,5.59-.93,8.4-.94,33.31-.07,66.62-.05,99.93-.05.97,0,1.95,0,4.25,0Z"/>
        <path class="cls-1" d="m214.76,83.18h-123.54c2.84-3.19,58.02-64.34,74.38-82.44,24.97,27.07,49.75,54.3,75.38,82.38-6.64-.04-17.16-.07-17.16-.07h0s-37.27-39.85-54.26-58.37c-1.23-1.34-2.47-2.66-4.09-4.42-15.1,16.54-29.96,32.8-45.47,49.78,3.96.14,3.93.11,5.47.12,20.97.01,77.64.02,77.64.02l3.35,3.71s5.02,5.65,8.3,9.29Z"/>
        <path class="cls-1" d="m394.98,83.1V.89h13.24c.17,23.01-.04,46.03.13,69.55h106.43v12.21c-3.8.98-110.15,1.4-119.81.45Z"/>
        <path class="cls-1" d="m551.3,83.14V.92h12.43c.94,3.45,1.27,74.58.33,82.22h-12.76Z"/>
        <path class="cls-1" d="m536.6,77.67c0,3.22-2.87,5.92-6.2,5.83-3.08-.08-5.82-2.74-5.88-5.71-.07-3.16,2.87-6.18,6-6.17,3.23.01,6.08,2.85,6.07,6.04Z"/>
      </g>
    </symbol>
  </defs>
  <g id="Layer_1-2" data-name="Layer 1">
    <use width="726.74" height="84.14" xlink:href="#Logo"/>
  </g>
</svg>