<?xml version="1.0" encoding="UTF-8"?>
<svg id="Layer_2" data-name="Layer 2" xmlns="http://www.w3.org/2000/svg" viewBox="0 0 1851.23 223.67">
  <defs>
    <style>
      .cls-1 {
        fill: #ffffff;
        stroke-width: 0px;
      }
    </style>
  </defs>
  <g id="Layer_5" data-name="Layer 5">
    <path class="cls-1" d="M387.12,0h0L112.37.13c-7.41.03-14.98.74-22.15,2.48C46.22,13.27,15.13,39.06,3.53,83.47c-17.49,67.01,32.73,124.44,91.49,132.01l99.27.46h0l108.13-123.16h-166.02s23.61,34.23,23.61,34.23h60.35s-47.51,56.56-47.51,56.56h0l-67.45.27c-37.05-2.22-69.33-35.55-70.36-71.37-1.19-42.33,31.52-77.01,74-78.09l52.69-.16,198.16-.02h0L387.12,0h0Z"/>
    <g>
      <path class="cls-1" d="M524.39,187.67h-219.31,1.24l118.83-130.09h0l152.49,164.09h46.5L425.34,4.32l-196.16,217.35h325.69l-30.47-34Z"/>
      <path class="cls-1" d="M557.5,221.67H226.2c0,.87,153.54-169.43,199.09-219.83h0l201.82,220.83h-48.84L424.96,57.23h0l-116.99,127.44h0l216.84,1h.41l32.27,36h0ZM232.78,220.67h319.56l-28.67-32h.16-221.53.32l122.53-134.14h0l154.06,165.8c3.79.01,25.67.07,41.57.16l-34.36-37.65c-55.26-60.57-107.46-117.8-160.92-175.76l-192.72,213.59Z"/>
    </g>
    <g>
      <path class="cls-1" d="M984.56,2.17h.37c-276.23-.45.05,0-276.23-.45-18.7.05-36.34,5.3-52.77,14.24-47.71,25.98-69.39,78.99-52.72,128.67,14.69,43.75,59.02,75.27,108.58,76.03h273.77v.64l-1.45-126.64h-121.69l23.44,34h63.7l-.11,57h0l-239.75.58c-6.9-.03-14.03-1.16-20.66-3.08-51.82-14.98-72.25-74.96-39.61-116.65,16.19-20.69,38.19-29.85,64.27-29.85h270.86V2.17h0Z"/>
      <path class="cls-1" d="M819.77,221.74c-39.09,0-74.92-.06-107.59-.24-49.64-.29-94.8-31.73-109.82-76.46-16.9-50.39,5.03-103.95,53.34-130.25,17.47-9.51,35.44-14.39,53.4-14.4,200.57-.12,200.57.29,200.57.29h76.51v.23h0v36.77h-272.99c-26.78,0-48.1,9.81-63.36,29.15-15.03,19.04-19.42,42.97-12.02,65.65,7.55,23.18,26.64,41.19,51.04,48.18,6.76,1.94,13.8,2.98,20.34,3.01l214.68,1h24.74,0s.37-37.23.09-55h-61.19l-24.63-36h122.3v-.08,128.08h1.33-65.54c-35.9.03-69.62.07-101.2.07ZM843.97,3.65c-44.64,0-88.91.02-133.61.13-17.44.05-34.91,4.77-51.92,14.02-46.96,25.57-68.29,77.6-51.87,126.54,14.6,43.48,58.55,74.24,106.87,74.33l270.74.02v.58h0l-1.24-122.59h-116.6l21.33,31h63.51v-.76l-.15,59.76h0l-27.5.11c-70.8.05-144.02.11-216.02-.09-6.85-.03-14.19-1.11-21.24-3.13-25.46-7.27-45.37-26.02-53.27-50.15-7.73-23.64-3.15-48.58,12.56-68.42,15.92-20.12,38.12-30.31,65.99-30.31h272.63V2.67l-7.65,1h.09-66.56c-21.82-.02-43.89-.03-66.08-.03Z"/>
    </g>
    <g>
      <path class="cls-1" d="M1446.18,222.67l-.88-217h-33.12v217h34Z"/>
      <path class="cls-1" d="M1447.2,223.67h-36.03V4.67h35l1.03,219ZM1413.18,220.67h31l-.77-214h-30.23v214Z"/>
    </g>
    <g>
      <path class="cls-1" d="M1025.18,219.67s316.03-1.19,316.03-1.19v-31.81h-281.57c-.45-62.22.11-123.13-.34-184h-34.09v217h-.03Z"/>
      <path class="cls-1" d="M1161.77,220.89l-139.59.29v-.56h0V1.67h38v1.31c.24,30.26.21,61.12.19,90.95-.03,29.61-.05,60.22.16,90.74h280.65v35h0l-179.41,1.22ZM1025.18,218.67l313-1.1v-29.9h-280v-1.13c-.24-31-.21-62.09-.18-92.16.02-29.43.05-59.86-.16-89.72h-32.65v214Z"/>
    </g>
    <g>
      <path class="cls-1" d="M1390.44,202.69c.03-8.41-7.49-15.9-16.01-15.93-8.25-.03-16.01,7.94-15.82,16.27.16,7.83,7.38,14.85,15.51,15.06,8.78.24,16.35-6.88,16.35-15.38l-.03-.03Z"/>
      <path class="cls-1" d="M1374.27,185.44s-.36,0-.35,0c4.4.01,8.82,1.91,12.13,5.21,3.16,3.14,5.03,7.29,5.18,11.45l.04.04v.58c0,4.37-1.8,8.52-5.08,11.71-3.27,3.18-7.69,4.99-12.18,4.99-.15,0-.3,0-.45,0M1373.25,216.14c3.94.17,7.84-1.43,10.72-4.23,2.65-2.58,4.15-5.89,4.27-9.37l-.02-.48c.01-3.66-1.59-7.37-4.41-10.17-2.82-2.81-6.57-4.42-10.28-4.44h-.25"/>
    </g>
    <path class="cls-1" d="M1374.54,219.42c-4.4,0-8.83-1.9-12.14-5.19-3.16-3.14-5.03-7.28-5.19-11.45l-.04-.04v-.58c0-4.37,1.79-8.53,5.07-11.72,3.27-3.19,7.68-4.99,12.17-5"/>
    <g>
      <path class="cls-1" d="M1658.09,221.49c42.98-.03,85.96.08,128.94-.03,38.65-.1,63.26-24.71,63.49-63.52.18-29.95-.5-59.92.18-89.85.91-39.31-30.31-63.1-63.13-62.97-85.94.36-171.9.44-257.86-.08-31.8-.21-64.28,22.34-63.57,62.48.55,30.81-.29,61.62.34,92.43.18,8.89,1.64,18.45,5.24,26.48,10.45,23.22,29.82,34.56,54.87,34.87,43.84.55,87.71.16,131.55.16l-.05.03ZM1659.45,38.17h121.05c3.91.94,7.82.79,11.7,1.15,13.45,1.3,22.75,10.24,22.91,23.69.42,33.39.44,66.78,0,100.17-.16,13.35-9.46,22.31-22.91,23.93-3.41.42-6.93.21-10.4.21-82.42.03-164.86,0-247.28,0-3.47,0-6.96.18-10.4-.23-13.45-1.59-22.75-10.63-22.91-23.88-.39-33.39-.36-66.78,0-100.17.13-12.64,9.07-21.84,21.63-23.56,3.86-.52,7.79-.29,11.7-.31l124.9-1h0Z"/>
      <path class="cls-1" d="M1580.94,222.1c-18.09,0-36.3-.07-54.35-.29-25.98-.33-45.11-12.49-55.32-35.17-4.1-9.15-5.14-19.56-5.28-26.68-.32-15.83-.26-31.93-.19-47.5.06-14.73.12-29.96-.15-44.93-.3-17.33,5.54-32.56,16.9-44.04,12.03-12.16,29.18-19.08,47.18-18.95,77.64.47,159.57.5,257.86.08.09,0,.18,0,.27,0,17.72,0,34.65,6.9,46.48,18.96,11.45,11.67,17.28,27.06,16.88,44.52-.41,18.3-.32,36.92-.23,54.94.06,11.44.12,23.27.05,34.9-.12,19.18-6.16,35.3-17.49,46.63-11.32,11.33-27.4,17.34-46.51,17.39-26.43.06-53.31.05-79.29.04-16.55-.01-33.1-.02-49.65,0h-2.09s.05-.03.05-.03c-12.2,0-24.4.04-36.6.07-12.7.03-25.58.07-38.53.07ZM1529.27,5.55c-17.53,0-34.28,6.78-46.01,18.65-11.17,11.29-16.91,26.27-16.61,43.32.27,14.99.21,30.22.15,44.95-.06,15.56-.13,31.65.19,47.47.14,7.02,1.16,17.29,5.2,26.29,10.04,22.3,28.85,34.26,54.42,34.58,30.94.39,62.42.3,92.86.22,12.9-.03,25.79-.07,38.69-.07h2.08l-.05.03c15.85-.01,31.71,0,47.57,0,25.99.01,52.86.03,79.29-.04,18.83-.05,34.67-5.96,45.8-17.1,11.13-11.14,17.08-27.02,17.19-45.92.07-11.63.01-23.45-.05-34.89-.09-18.02-.19-36.66.23-54.97.4-17.18-5.34-32.33-16.59-43.8-11.64-11.87-28.31-18.66-45.77-18.66-.09,0-.18,0-.27,0-98.38.42-180.1.39-257.87-.08-.15,0-.3,0-.45,0ZM1787.01,187.87c-.88,0-1.75-.01-2.61-.03-.87-.01-1.74-.03-2.6-.03-54.95.02-109.91.01-164.86,0h-82.42c-.81,0-1.62,0-2.42.01-2.64.03-5.36.07-8.04-.26-14.03-1.66-23.2-11.22-23.35-24.37-.38-32.08-.38-65.78,0-100.18.13-12.6,9-22.26,22.07-24.05,2.92-.4,5.92-.36,8.82-.33.98.01,1.97.02,2.95.02l124.39-1h121.68c2.6.64,5.27.78,7.85.91,1.24.06,2.52.13,3.79.25,14.04,1.36,23.21,10.85,23.36,24.19.43,34.22.43,67.92,0,100.18-.16,13.15-9.32,22.73-23.35,24.42-1.73.21-3.5.26-5.25.26ZM1781.8,186.82c.87,0,1.74.01,2.62.03,2.56.04,5.2.08,7.72-.23,13.71-1.65,22.32-10.63,22.47-23.44.43-32.25.43-65.94,0-100.16-.15-12.79-8.96-21.89-22.46-23.2-1.24-.12-2.51-.18-3.74-.24-2.61-.13-5.3-.27-7.97-.9h-120.47l-125.42,1c-.98,0-1.97,0-2.96-.02-2.87-.03-5.83-.07-8.68.32-12.56,1.72-21.08,10.99-21.2,23.07-.38,34.39-.38,68.08,0,100.16.15,12.61,8.97,21.79,22.47,23.38,2.61.31,5.3.28,7.9.25.81,0,1.63-.02,2.44-.02h82.42c54.95.01,109.91.02,164.86,0Z"/>
    </g>
  </g>
</svg>